<?xml version="1.0" standalone="no"?>
<!DOCTYPE svg PUBLIC "-//W3C//DTD SVG 20010904//EN"
 "http://www.w3.org/TR/2001/REC-SVG-20010904/DTD/svg10.dtd">
<svg version="1.0" xmlns="http://www.w3.org/2000/svg"
 width="513.000000pt" height="513.000000pt" viewBox="0 0 513.000000 513.000000"
 preserveAspectRatio="xMidYMid meet">
<metadata>
Created by potrace 1.11, written by Peter Selinger 2001-2013
</metadata>
<g transform="translate(0.000000,513.000000) scale(0.100000,-0.100000)"
fill="#000000" stroke="none">
<path d="M1387 5123 c-4 -3 -2 -14 4 -25 9 -17 8 -18 -10 -6 -11 6 -17 16 -14
21 3 5 -6 1 -21 -8 -14 -10 -26 -14 -26 -10 0 5 -8 1 -18 -8 -10 -10 -21 -14
-24 -11 -3 3 -9 1 -12 -4 -7 -11 13 -10 31 1 6 4 15 2 19 -5 4 -7 4 -10 -1 -6
-4 4 -14 3 -22 -3 -7 -6 -13 -8 -13 -3 -1 5 -7 -2 -16 -16 -14 -23 -14 -23 -9
-2 4 12 2 22 -3 22 -5 0 -12 -9 -15 -19 -3 -11 -19 -29 -37 -39 -17 -11 -32
-24 -33 -28 -2 -9 -7 -10 -35 -13 -7 0 -11 -5 -8 -10 3 -4 -3 -16 -13 -25 -13
-12 -21 -14 -26 -6 -12 19 -26 0 -15 -21 6 -11 7 -18 2 -17 -13 4 -53 -42 -46
-53 3 -5 0 -9 -5 -9 -18 0 -13 16 13 48 17 20 21 29 11 29 -8 0 -12 -4 -9 -8
2 -4 -6 -16 -18 -26 -15 -11 -23 -28 -22 -46 1 -15 -3 -30 -9 -34 -6 -3 -7 -1
-4 4 4 6 1 13 -7 16 -20 8 -28 -4 -15 -20 6 -7 8 -13 3 -13 -5 0 -2 -5 6 -11
13 -9 13 -10 0 -6 -8 2 -14 10 -12 16 1 7 -2 10 -6 7 -5 -3 -8 -17 -7 -31 3
-19 -1 -25 -13 -23 -10 2 -21 8 -25 13 -5 6 -7 4 -4 -5 2 -8 10 -14 17 -12 11
3 11 0 0 -12 -14 -18 -25 -22 -15 -6 3 6 1 10 -4 10 -6 0 -11 -7 -11 -15 0 -8
-5 -15 -11 -15 -5 0 -8 4 -4 9 3 5 0 13 -6 17 -7 4 -9 3 -6 -3 4 -6 -1 -17
-10 -24 -14 -12 -15 -12 -9 -1 7 11 4 12 -11 3 -11 -6 -23 -8 -26 -5 -3 3 -11
-4 -17 -16 -8 -14 -15 -19 -19 -12 -4 7 -12 3 -20 -11 -13 -20 -13 -21 1 -9
13 10 17 10 21 -1 6 -15 -20 -16 -42 -2 -10 5 -12 4 -7 -3 10 -16 -7 -15 -23
1 -11 10 -12 9 -6 -1 4 -7 17 -18 29 -23 18 -8 17 -9 -7 -4 -19 4 -26 2 -22
-5 4 -6 1 -9 -7 -8 -7 2 -12 -2 -11 -8 1 -6 -4 -11 -12 -11 -8 0 -12 4 -10 8
3 4 -2 10 -11 13 -12 5 -15 2 -10 -9 3 -9 2 -13 -3 -10 -6 3 -14 -2 -19 -11
-8 -15 -10 -15 -15 0 -4 10 -3 14 2 11 5 -3 12 -1 15 4 4 5 -2 8 -11 6 -10 -1
-17 -9 -15 -16 1 -8 -5 -5 -14 6 l-16 20 4 -20 c2 -11 8 -23 13 -27 6 -5 5 -8
-3 -8 -7 0 -15 7 -18 15 -4 8 -10 12 -16 9 -5 -3 -4 -13 4 -22 7 -10 8 -14 4
-10 -5 4 -16 2 -25 -5 -14 -11 -14 -10 -2 6 7 9 10 17 5 18 -54 5 -71 2 -71
-9 0 -7 6 -11 13 -8 8 3 11 0 7 -10 -4 -10 -9 -11 -17 -4 -9 6 -17 6 -26 -3
-8 -8 -11 -8 -7 -1 4 7 0 15 -9 18 -22 9 -32 -3 -14 -14 13 -8 12 -10 -2 -10
-10 0 -18 5 -18 10 0 7 -7 8 -17 3 -10 -5 -32 -8 -50 -8 -25 1 -30 -2 -23 -15
7 -13 -1 -15 -49 -15 -54 0 -58 -1 -55 -23 1 -12 -2 -20 -7 -16 -5 3 -7 9 -4
14 3 5 0 12 -6 16 -8 4 -9 3 -5 -4 3 -6 -3 -16 -14 -22 -11 -6 -18 -15 -15
-20 3 -6 -1 -7 -9 -4 -13 5 -12 9 6 23 17 14 18 18 5 18 -10 0 -15 -3 -12 -5
3 -3 -3 -11 -14 -18 -11 -8 -17 -23 -16 -38 2 -18 -1 -23 -11 -19 -8 3 -14 1
-15 -3 -5 -46 -5 -63 2 -58 4 2 10 0 14 -6 3 -5 -1 -10 -9 -10 -9 0 -16 -5
-16 -10 0 -7 7 -7 21 1 17 8 23 8 30 -2 4 -7 6 -16 4 -19 -2 -4 3 -7 11 -7 10
0 11 4 4 11 -5 5 -10 14 -10 20 0 5 3 6 7 3 3 -4 11 -2 18 3 8 7 12 5 12 -5 0
-8 -5 -11 -11 -8 -6 4 -5 -1 3 -10 14 -18 22 -22 20 -9 -3 18 2 32 12 32 5 0
7 -6 3 -12 -6 -10 -4 -10 8 0 13 10 17 10 21 0 4 -10 6 -10 6 0 1 6 6 12 12
12 5 0 7 -6 3 -12 -5 -8 -1 -7 10 2 10 8 30 15 45 15 14 0 25 5 24 11 -1 5 7
16 18 22 19 12 19 11 9 -8 -6 -12 -9 -24 -6 -27 3 -3 8 2 12 11 3 9 10 14 14
11 5 -3 12 -1 15 5 5 8 15 6 31 -5 24 -15 24 -15 13 3 -13 20 -25 22 -46 9 -9
-6 -11 -3 -7 7 6 15 57 17 71 1 4 -4 2 -5 -6 0 -10 5 -12 4 -7 -4 4 -6 12 -9
17 -5 5 3 7 10 4 15 -4 5 6 9 22 8 15 0 22 -3 16 -6 -16 -6 -17 -33 -2 -33 5
0 8 4 4 9 -3 5 -1 12 4 16 6 3 8 12 4 20 -3 8 0 15 6 15 6 0 11 -3 11 -8 0 -4
14 -8 30 -8 21 -1 30 3 30 14 0 12 3 13 11 5 13 -13 39 -6 39 9 0 6 -6 5 -15
-2 -9 -7 -15 -8 -15 -2 0 14 28 23 35 12 6 -10 70 -8 81 3 4 4 1 14 -7 24 -12
15 -12 16 1 7 8 -5 25 -9 38 -9 16 -1 21 3 17 16 -3 10 0 21 6 25 8 4 9 3 5
-4 -4 -6 -2 -22 5 -34 17 -32 20 -81 4 -68 -6 5 -15 7 -18 3 -4 -3 -7 -1 -7 6
0 7 7 11 14 8 10 -4 13 -1 9 9 -4 10 -9 12 -18 4 -7 -6 -20 -8 -29 -4 -9 3
-16 1 -16 -6 0 -6 -5 -8 -12 -4 -7 4 -8 3 -4 -5 5 -8 12 -9 20 -2 8 7 16 4 26
-12 12 -20 12 -21 -4 -8 -12 10 -20 11 -24 4 -4 -5 -15 -9 -24 -7 -11 1 -18
-4 -18 -14 0 -15 -2 -15 -10 -2 -10 16 7 33 25 22 5 -3 4 2 -4 11 -14 18 -26
23 -16 8 3 -5 -4 -12 -15 -16 -11 -3 -20 -11 -20 -17 0 -6 -9 -3 -20 7 -11 10
-20 13 -20 7 0 -7 4 -12 9 -12 5 0 11 -7 15 -15 4 -12 2 -13 -13 -5 -11 5 -21
13 -23 17 -3 5 -3 2 -2 -4 4 -16 -18 -17 -34 -1 -7 7 -12 8 -12 2 0 -5 -5 -2
-11 6 -8 12 -9 10 -4 -9 5 -16 4 -21 -4 -17 -6 4 -14 0 -17 -9 -5 -11 -10 -13
-19 -5 -11 9 -12 7 -8 -8 3 -12 -2 -22 -13 -26 -15 -6 -15 -4 -3 10 12 15 11
16 -10 9 -18 -5 -22 -4 -16 6 5 8 4 11 0 6 -5 -4 -16 0 -26 9 -13 12 -19 12
-25 3 -4 -7 -3 -10 3 -6 6 4 21 -5 34 -19 20 -21 20 -24 5 -18 -12 5 -17 4
-13 -3 9 -15 -40 -8 -60 9 -15 12 -15 11 -2 -9 7 -12 20 -24 29 -26 8 -2 -16
-2 -55 -1 -45 2 -69 7 -67 14 1 6 -2 9 -8 5 -8 -5 -7 -11 1 -21 10 -12 9 -17
-1 -27 -10 -9 -11 -9 -6 1 4 7 1 12 -8 12 -8 0 -14 -8 -14 -17 0 -10 0 -22 -2
-28 -5 -21 0 -36 12 -29 7 5 8 3 3 -5 -4 -8 -11 -9 -17 -3 -12 12 -17 46 -8
52 4 3 1 12 -8 20 -14 13 -15 12 -9 -2 3 -9 1 -19 -6 -22 -8 -3 -8 -5 2 -5 11
-1 11 -4 0 -18 -10 -11 -10 -14 -1 -9 11 6 16 -4 13 -26 0 -4 9 -5 20 -3 16 3
19 0 14 -13 -5 -14 -4 -15 6 -4 7 6 20 12 29 12 13 0 13 -1 0 -10 -12 -7 -10
-9 8 -7 14 1 21 6 17 15 -3 8 0 10 6 6 6 -4 15 0 20 7 4 7 11 10 15 6 4 -4 -1
-13 -11 -20 -10 -8 -15 -20 -12 -28 4 -11 6 -10 6 3 1 11 8 16 21 13 11 -2 23
1 26 7 5 7 2 8 -7 3 -12 -8 -12 -6 0 8 13 17 26 24 17 9 -2 -4 6 -12 18 -18
17 -8 23 -7 23 2 0 7 -4 11 -8 8 -4 -2 -10 -1 -13 4 -6 10 45 10 61 -1 9 -5
11 -3 7 6 -3 8 0 18 7 23 8 4 10 3 5 -4 -4 -7 -2 -12 4 -12 6 0 8 -4 5 -10 -3
-5 -1 -10 5 -10 6 0 10 8 8 18 -2 12 3 16 16 14 18 -3 19 -2 5 15 -13 17 -13
17 4 4 17 -13 17 -15 0 -35 -13 -15 -14 -17 -2 -8 9 6 20 8 24 4 5 -4 5 -1 1
6 -4 6 -2 12 4 12 6 0 8 6 5 13 -4 6 1 3 11 -8 16 -20 16 -20 11 3 -3 12 -1
20 3 17 5 -3 10 -2 13 2 2 5 2 2 1 -4 -5 -21 14 -15 27 8 8 15 14 18 22 10 6
-6 19 -11 30 -11 10 0 16 -4 12 -9 -3 -5 0 -13 7 -17 7 -4 10 -4 6 1 -4 4 -2
15 5 23 10 13 9 14 -3 7 -12 -6 -13 -6 -2 6 8 9 15 10 20 4 4 -6 13 -11 21
-13 12 -3 12 -1 0 14 -11 14 -11 16 0 10 8 -5 17 -3 22 5 6 9 7 2 4 -21 -4
-24 -2 -30 4 -20 5 8 7 18 5 22 -3 4 2 8 11 8 10 0 13 -5 9 -12 -4 -8 -3 -10
2 -5 5 5 9 13 9 18 0 5 3 8 6 7 3 -2 13 3 22 10 14 12 16 11 12 -7 -2 -12 0
-21 6 -21 8 0 14 23 10 43 -1 5 3 6 8 2 6 -3 8 -11 5 -18 -3 -9 7 -13 34 -12
24 0 38 4 35 11 -2 7 8 9 28 6 20 -3 34 0 40 9 7 11 9 11 9 -3 0 -9 -8 -22
-17 -27 -10 -6 -13 -11 -6 -11 14 0 43 27 43 41 0 5 4 9 9 9 5 0 8 -8 6 -17
-2 -10 -4 -18 -5 -18 -6 0 -6 -57 0 -60 4 -3 7 5 6 18 -1 16 5 22 21 23 15 1
20 -3 15 -14 -4 -11 -1 -14 12 -9 11 5 15 3 10 -5 -5 -7 0 -9 14 -6 12 4 26 0
33 -8 6 -8 15 -11 20 -8 5 3 6 -2 3 -10 -3 -8 -13 -17 -22 -19 -15 -4 -15 -5
1 -6 9 0 17 -6 17 -12 0 -5 -6 -7 -12 -4 -7 4 -2 -3 11 -14 13 -12 18 -21 12
-21 -6 0 -11 -5 -11 -11 0 -5 4 -8 9 -5 5 3 11 0 14 -8 6 -14 -9 -16 -29 -4
-6 4 -11 1 -11 -7 0 -8 3 -12 7 -10 3 2 12 0 20 -6 10 -6 11 -9 3 -9 -7 0 -13
-7 -13 -15 0 -8 4 -15 8 -15 14 0 11 -38 -3 -50 -8 -6 -11 -19 -8 -27 5 -12 3
-14 -7 -8 -9 5 -11 4 -6 -4 6 -9 11 -9 21 -1 9 8 14 7 18 -4 4 -9 1 -18 -5
-22 -7 -5 -8 -2 -3 6 5 8 4 11 -3 6 -6 -4 -8 -14 -5 -23 5 -12 3 -14 -8 -9 -8
4 -5 0 5 -8 19 -16 19 -16 -3 -16 -20 0 -21 -1 -7 -16 19 -19 21 -31 3 -15 -8
6 -17 8 -20 4 -4 -3 1 -12 11 -20 16 -14 16 -14 -3 -10 -17 3 -20 -2 -22 -31
-1 -20 -9 -39 -17 -44 -8 -4 -13 -19 -11 -33 2 -20 0 -23 -12 -14 -11 9 -12 8
-7 -5 3 -9 11 -16 17 -16 6 0 1 -7 -11 -16 -14 -10 -21 -22 -17 -31 5 -13 3
-14 -10 -3 -13 11 -16 11 -13 -1 2 -8 8 -18 13 -22 6 -5 0 -7 -13 -4 -20 5
-21 3 -11 -10 10 -12 10 -16 -1 -23 -8 -5 -17 -7 -20 -5 -4 2 -7 -2 -7 -10 0
-12 3 -12 16 -2 14 10 14 10 3 -5 -8 -10 -10 -23 -6 -30 6 -11 5 -11 -8 0 -13
10 -18 10 -24 1 -5 -8 -3 -9 6 -4 10 6 12 4 7 -9 -4 -10 -3 -15 3 -11 6 3 10
1 10 -4 0 -6 -9 -11 -19 -11 -11 0 -23 -5 -27 -12 -5 -7 -2 -9 8 -5 10 3 18
-1 21 -12 2 -10 -1 -18 -9 -18 -7 0 -10 5 -7 10 3 6 1 7 -5 3 -6 -4 -9 -13 -6
-21 4 -8 10 -13 14 -10 7 4 6 -24 0 -32 -2 -2 -3 -13 -4 -25 0 -12 -11 -27
-24 -34 -12 -6 -26 -15 -30 -19 -4 -5 -2 -5 4 -2 8 4 11 -3 11 -21 -1 -16 -7
-29 -14 -29 -10 0 -10 4 -1 16 10 13 9 13 -6 -1 -18 -15 -14 -44 4 -33 5 3 11
1 15 -4 3 -6 -4 -8 -15 -6 -15 3 -21 -1 -19 -13 1 -9 0 -20 -1 -24 -1 -5 -3
-11 -4 -15 -1 -5 -7 -17 -13 -28 -6 -11 -12 -24 -13 -30 -1 -5 -8 -9 -17 -7
-10 2 -12 -1 -7 -9 4 -7 3 -10 -4 -5 -5 3 -12 1 -14 -6 -3 -7 -7 -5 -11 6 -5
11 -3 15 5 10 7 -4 8 -3 4 4 -10 17 -29 15 -23 -2 7 -17 -30 -29 -37 -12 -3 6
-4 2 -3 -9 2 -11 7 -26 11 -34 6 -10 5 -12 -2 -7 -11 7 -17 -13 -13 -38 1 -5
-6 -3 -15 5 -16 13 -17 12 -10 -6 14 -36 15 -55 3 -52 -7 1 -11 -4 -9 -12 1
-7 -2 -19 -8 -25 -5 -7 -6 -17 -2 -21 4 -5 1 -5 -6 0 -10 5 -11 10 -3 18 15
15 14 24 -3 24 -8 0 -12 -6 -8 -15 4 -11 1 -13 -7 -7 -7 4 -5 -5 5 -21 13 -19
14 -25 5 -19 -11 6 -13 4 -7 -10 7 -18 6 -18 -16 0 -13 11 -17 13 -10 5 6 -8
12 -25 12 -38 0 -20 -3 -22 -14 -13 -12 10 -13 8 -9 -8 3 -12 10 -18 15 -15 6
4 2 -6 -8 -22 -11 -15 -18 -29 -16 -31 8 -10 -1 -23 -15 -23 -16 -1 -16 -2 1
-15 12 -9 15 -15 7 -15 -7 0 -11 -6 -8 -14 4 -10 1 -13 -9 -9 -11 4 -12 9 -3
19 8 10 8 14 0 14 -6 0 -11 -3 -12 -7 0 -5 -2 -16 -4 -25 -2 -10 0 -16 5 -15
4 1 8 -2 9 -8 0 -5 -10 -9 -22 -7 l-22 2 22 -12 c19 -11 20 -15 8 -32 -8 -11
-19 -15 -27 -10 -7 4 -4 -3 6 -15 20 -22 20 -22 0 -15 -17 7 -17 6 -5 -9 12
-15 9 -21 -10 -19 -11 2 -17 -48 -7 -54 4 -3 5 -11 1 -17 -4 -7 -8 -19 -10
-27 -1 -8 -7 -16 -13 -18 -7 -3 -4 -10 7 -18 15 -12 15 -13 2 -8 -10 3 -20 0
-24 -6 -4 -6 -1 -9 7 -8 7 2 11 -3 9 -12 -3 -8 -4 -30 -4 -48 0 -31 -6 -38
-10 -10 -2 7 -6 14 -10 16 -6 2 -9 -2 -6 -10 6 -21 5 -37 -1 -33 -5 3 -12 1
-15 -5 -4 -6 -3 -10 2 -9 4 1 15 1 23 0 12 -1 12 -4 -3 -12 -9 -5 -17 -15 -17
-22 0 -8 3 -8 9 1 7 11 9 10 14 -3 5 -10 3 -14 -4 -9 -7 4 -10 1 -7 -7 3 -8
-2 -19 -10 -25 -12 -9 -12 -13 -2 -19 9 -5 11 -4 6 3 -4 7 -3 12 2 12 5 0 9
-12 9 -26 0 -18 -2 -22 -8 -13 -7 11 -9 10 -9 -3 0 -9 6 -18 13 -21 6 -2 9 -8
5 -12 -4 -4 -16 -2 -25 6 -16 13 -17 12 -5 -2 7 -10 11 -28 8 -42 -3 -20 -1
-24 11 -20 14 5 14 3 0 -18 -17 -25 -9 -57 11 -45 6 4 8 -2 5 -15 -4 -15 -8
-17 -14 -7 -6 9 -8 6 -6 -9 0 -12 4 -20 8 -17 4 2 10 -3 13 -11 7 -20 6 -31
-5 -28 -4 2 -5 -5 -2 -14 5 -12 3 -14 -7 -8 -9 5 -11 4 -6 -3 5 -9 13 -9 29 0
20 10 21 10 9 -5 -8 -9 -10 -22 -6 -29 11 -18 12 -48 2 -42 -5 4 -7 12 -4 20
3 8 1 14 -3 14 -5 0 -9 -16 -8 -35 1 -19 5 -35 10 -35 4 0 5 -5 1 -12 -4 -7
-3 -8 5 -4 8 6 9 12 2 20 -8 9 -7 13 3 13 9 0 13 -8 11 -19 -2 -11 2 -21 10
-25 12 -4 10 -9 -8 -24 -16 -14 -17 -17 -4 -13 13 5 16 2 10 -12 -5 -13 -3
-15 8 -9 8 4 11 5 7 0 -4 -4 -2 -15 5 -23 15 -19 17 -64 3 -75 -6 -5 0 -5 14
-1 23 6 24 5 10 -10 -12 -16 -12 -17 1 -14 7 1 15 -2 17 -7 1 -6 -2 -10 -7
-10 -5 0 -13 -4 -18 -9 -4 -5 -3 -7 3 -3 18 10 43 -27 31 -49 -5 -10 -6 -16
-2 -12 5 4 15 2 24 -5 14 -11 14 -10 2 6 -12 15 -12 17 3 11 18 -7 21 -20 6
-29 -6 -3 -10 -11 -10 -17 0 -7 6 -6 15 2 18 15 20 -1 3 -19 -10 -10 -10 -12
-1 -7 7 4 18 -5 28 -24 8 -16 18 -30 21 -30 2 0 -3 14 -11 31 -9 17 -14 33
-12 35 2 3 10 -9 17 -26 7 -16 16 -27 21 -24 14 8 11 -3 -6 -19 -13 -13 -13
-16 1 -21 8 -3 12 -2 9 3 -3 5 -2 12 3 15 4 2 9 -5 9 -16 1 -12 7 -26 14 -32
9 -8 10 -7 4 3 -5 10 -4 12 4 7 6 -4 9 -12 6 -17 -4 -5 -1 -9 5 -9 6 0 8 -5 4
-12 -5 -8 0 -7 11 2 16 14 17 13 11 -8 -6 -18 -4 -22 13 -22 12 0 21 -5 21
-11 0 -5 -5 -7 -11 -3 -8 5 -8 1 0 -13 6 -11 7 -24 3 -29 -4 -5 0 -3 8 3 21
19 33 16 27 -6 -4 -15 0 -18 20 -16 17 2 23 -2 19 -11 -3 -7 -1 -16 5 -19 5
-4 6 -11 3 -17 -5 -7 -2 -8 5 -3 7 4 23 -3 38 -16 15 -13 23 -18 19 -12 -10
18 18 17 33 0 6 -8 8 -17 4 -20 -12 -13 13 -7 26 5 11 10 13 10 7 1 -4 -7 -2
-13 3 -13 6 0 11 -5 11 -11 0 -8 -4 -8 -13 -1 -9 8 -17 8 -27 0 -12 -8 -12 -9
2 -4 10 3 20 1 24 -5 3 -6 13 -8 21 -5 10 4 13 2 10 -8 -3 -8 4 -22 16 -33 21
-18 21 -18 7 1 -14 18 -13 19 3 13 10 -4 21 -7 23 -7 3 0 2 -5 -2 -12 -5 -8
-2 -9 9 -5 20 8 22 -4 5 -22 -11 -11 -10 -12 2 -6 8 5 27 9 42 10 22 1 25 -1
18 -15 -8 -14 -5 -16 14 -13 13 3 27 -1 31 -8 5 -6 4 -10 -1 -7 -5 3 -18 2
-29 -3 -14 -6 -8 -7 19 -4 35 5 38 3 33 -15 -3 -11 -1 -18 4 -14 5 3 9 13 10
22 0 14 2 13 8 -3 5 -11 7 -23 4 -27 -2 -5 1 -8 7 -8 7 0 10 7 7 15 -4 8 -1
17 5 21 7 5 8 2 3 -6 -6 -10 -4 -12 11 -6 10 4 15 4 12 0 -4 -3 0 -13 8 -21 8
-8 12 -19 9 -24 -4 -5 -1 -9 5 -9 7 0 10 7 6 15 -4 12 -2 13 13 6 10 -6 21 -7
25 -4 3 3 6 2 6 -4 0 -5 7 -10 15 -11 8 -1 21 -3 29 -4 8 -1 13 -9 11 -20 -2
-10 0 -18 6 -18 5 0 9 5 9 10 0 6 4 10 9 10 5 0 8 -11 6 -25 -1 -14 2 -28 7
-31 4 -3 8 -2 7 3 -1 4 -1 19 0 33 1 19 3 22 10 10 6 -8 8 -17 5 -21 -2 -4 1
-11 7 -15 8 -4 9 -3 5 4 -4 7 -1 12 9 12 10 0 13 5 9 13 -4 7 -3 9 2 4 5 -5
10 -13 10 -18 1 -5 2 -13 3 -18 0 -5 11 -11 24 -13 13 -2 21 -9 19 -18 -3 -10
3 -9 19 5 21 19 22 19 15 1 -5 -15 -4 -17 8 -7 11 9 16 9 22 0 5 -8 3 -9 -6
-4 -9 5 -11 4 -6 -3 10 -17 26 -15 26 3 0 8 5 15 11 15 5 0 7 -4 4 -10 -3 -5
-1 -18 5 -27 10 -16 11 -16 6 -1 -3 12 -1 15 9 11 8 -3 13 -9 10 -13 -3 -4 3
-14 12 -21 9 -8 14 -9 11 -4 -4 7 10 11 38 13 27 1 43 -2 39 -8 -3 -6 1 -10 9
-10 8 0 18 5 21 10 5 8 11 7 20 0 8 -7 18 -9 23 -6 6 3 15 -1 22 -9 14 -17 35
-21 25 -5 -3 5 -1 10 4 10 15 0 14 -13 -1 -29 -11 -10 -9 -11 6 -5 15 6 17 4
11 -6 -5 -9 -4 -11 4 -6 6 4 9 12 6 17 -4 5 -2 9 3 9 5 0 14 -10 21 -23 11
-22 11 -22 5 3 -3 14 -2 20 3 14 13 -17 41 -24 47 -11 3 9 5 8 5 -1 1 -8 6
-10 14 -6 8 5 7 2 -2 -9 -8 -10 -11 -20 -7 -24 3 -3 6 -2 6 4 0 6 10 13 23 17
17 5 19 8 8 15 -8 5 -9 11 -3 15 5 3 13 -1 16 -10 3 -9 11 -12 18 -8 8 5 9 2
5 -9 -3 -9 -1 -19 5 -23 7 -4 8 -3 4 4 -5 8 5 12 34 12 29 0 39 4 34 12 -4 7
-3 8 4 4 6 -4 9 -13 5 -21 -3 -8 0 -15 6 -15 6 0 11 3 11 8 0 4 10 13 23 21
22 14 22 14 3 -8 -11 -11 -14 -21 -8 -21 6 0 14 5 17 10 8 13 25 13 25 -1 0
-5 -4 -7 -10 -4 -6 3 -7 -1 -3 -10 3 -9 9 -13 12 -8 10 14 51 9 61 -7 6 -10
10 -11 10 -3 0 16 32 12 55 -7 14 -11 16 -11 13 0 -2 8 2 14 8 15 7 0 20 10
30 22 14 17 23 20 34 13 13 -9 12 -10 -4 -8 -10 2 -21 -3 -23 -10 -4 -9 1 -10
20 -3 14 5 28 8 31 5 3 -2 4 -1 2 2 -3 3 0 12 7 19 9 10 14 9 23 -4 17 -22
114 -24 107 -2 -3 11 0 10 11 -3 13 -16 16 -17 16 -4 0 12 6 15 22 10 16 -4
19 -2 13 8 -6 9 -4 11 6 5 19 -12 49 -14 49 -3 0 5 6 3 14 -4 8 -7 11 -17 8
-23 -3 -5 2 -4 11 4 18 14 23 26 8 16 -5 -3 -12 -1 -15 3 -3 5 13 8 35 6 22
-2 37 1 34 6 -3 5 -1 12 5 15 6 4 10 3 9 -2 -1 -4 -1 -17 0 -28 1 -16 3 -17
10 -5 6 8 7 18 4 23 -3 5 4 4 15 -2 28 -15 32 -14 25 7 -6 16 -6 16 10 0 17
-17 23 -33 9 -24 -4 2 -8 -4 -8 -15 0 -10 4 -19 8 -19 4 0 8 6 8 14 0 8 5 18
12 22 6 4 8 3 5 -3 -6 -10 21 -42 30 -35 1 1 3 0 3 -3 0 -3 0 -8 0 -12 0 -3
-9 2 -20 12 -11 10 -20 14 -20 9 0 -14 39 -36 51 -28 6 3 3 -9 -6 -27 -9 -19
-10 -27 -3 -18 16 19 47 21 44 3 -1 -8 -5 -17 -9 -20 -15 -15 -6 -26 10 -13 9
8 14 9 10 2 -4 -6 -4 -13 0 -16 5 -2 2 -2 -5 -1 -7 2 -15 -3 -18 -11 -5 -12
-11 -11 -38 7 -17 12 -25 15 -19 7 7 -9 10 -19 6 -23 -4 -4 0 -4 10 0 9 3 17
2 17 -3 0 -13 -33 -12 -42 1 -4 6 -10 7 -14 3 -4 -3 -1 -13 6 -22 7 -8 8 -15
2 -15 -5 0 -13 7 -16 16 -3 8 -10 13 -15 9 -5 -3 -12 -1 -16 5 -8 13 -25 13
-25 -1 0 -5 4 -8 9 -5 10 7 23 -19 14 -28 -4 -3 -11 -6 -17 -6 -6 0 -4 5 4 10
11 7 11 10 2 10 -23 0 -53 -21 -46 -32 9 -14 -13 -2 -46 26 -13 12 -19 14 -12
5 6 -9 8 -20 4 -24 -4 -5 -2 -5 4 -2 6 3 11 -1 11 -9 0 -10 -4 -11 -10 -5 -7
7 -17 6 -31 -1 -15 -8 -21 -8 -24 1 -5 14 -32 15 -32 0 0 -5 5 -7 12 -3 7 5 8
3 3 -6 -6 -10 -10 -10 -20 3 -10 14 -12 14 -21 -1 -9 -13 -12 -13 -19 -2 -5 8
-4 11 2 7 5 -3 10 0 10 8 0 11 -4 12 -13 4 -7 -6 -18 -8 -25 -4 -7 5 -7 0 1
-16 l13 -24 -22 20 c-19 16 -24 17 -31 5 -5 -8 -6 -18 -3 -23 3 -5 -4 -4 -14
2 -11 6 -23 7 -27 4 -3 -3 -6 0 -6 7 0 9 -5 7 -15 -6 -11 -14 -14 -15 -9 -3 7
21 -14 35 -29 20 -9 -9 -7 -10 7 -5 13 5 17 4 12 -4 -9 -14 -60 -9 -81 8 -12
10 -15 10 -15 -4 0 -9 -5 -16 -10 -16 -6 0 -10 7 -8 16 2 10 -5 18 -15 19 -9
2 -15 -1 -11 -6 3 -5 10 -6 16 -3 6 4 8 3 5 -3 -3 -5 -16 -9 -29 -8 -13 1 -26
-3 -31 -9 -4 -7 -9 -3 -13 12 -4 12 -10 22 -15 22 -5 0 -6 -7 -2 -16 5 -14 3
-15 -17 -4 -19 10 -22 10 -17 -2 3 -8 -1 -15 -8 -15 -8 0 -11 7 -7 16 3 9 2
13 -3 9 -4 -4 -15 -2 -24 5 -14 11 -14 10 -2 -6 8 -9 10 -21 6 -25 -4 -4 -10
-2 -12 5 -2 7 -11 9 -20 6 -12 -5 -14 -3 -8 8 8 12 6 12 -8 0 -18 -15 -23 -26
-7 -16 6 3 7 -1 4 -10 -6 -14 -8 -14 -19 2 -7 10 -11 22 -8 27 4 5 1 6 -6 2
-6 -4 -8 -13 -4 -19 12 -20 11 -34 -2 -34 -7 0 -11 6 -8 13 2 6 0 15 -5 18 -5
3 -9 -2 -8 -12 0 -10 -5 -16 -14 -14 -8 2 -12 0 -8 -3 4 -4 3 -16 -2 -26 -7
-12 -7 -20 0 -24 5 -3 10 -11 10 -16 0 -6 -7 -3 -16 5 -26 26 -27 18 -4 -21
l22 -38 -23 27 c-19 22 -27 26 -39 17 -11 -8 -12 -12 -2 -16 6 -2 10 -9 7 -13
-3 -5 -1 -11 4 -15 6 -3 8 6 6 22 l-4 28 12 -25 c8 -18 20 -25 37 -24 39 2 59
14 54 32 -2 9 2 5 9 -11 l13 -27 12 27 c10 25 11 26 5 3 -4 -20 -3 -23 8 -12
19 17 34 15 19 -3 -7 -9 -10 -18 -6 -22 3 -3 6 -1 6 6 0 9 8 11 21 8 16 -4 18
-3 9 8 -8 10 -8 15 1 21 8 5 9 3 4 -6 -5 -9 -2 -10 14 -5 13 4 21 2 21 -5 0
-6 -4 -8 -10 -5 -16 10 -11 -1 7 -16 11 -10 14 -10 9 -2 -4 8 -2 13 4 13 6 0
9 4 6 8 -2 4 3 8 13 8 10 0 18 -6 18 -12 0 -7 -7 -10 -16 -7 -14 4 -14 4 -1
-6 11 -8 18 -6 29 7 13 16 13 16 8 0 -4 -11 1 -19 15 -24 15 -4 17 -8 8 -14
-7 -4 -9 -14 -6 -21 4 -8 -2 -3 -13 10 -12 13 -21 18 -21 13 0 -6 5 -14 10
-17 6 -4 8 -10 5 -15 -3 -4 3 -7 12 -5 10 2 22 4 26 4 5 1 5 7 1 14 -5 9 -3 9
7 -1 12 -11 12 -14 -1 -23 -11 -8 -9 -9 10 -3 23 6 24 6 10 -12 -14 -17 -13
-18 1 -7 9 7 20 9 25 5 5 -4 0 4 -11 17 l-20 24 22 -12 c12 -6 25 -16 28 -21
4 -6 11 -8 16 -4 5 3 7 10 3 15 -3 5 -10 7 -15 4 -5 -4 -6 2 -2 11 4 12 8 14
11 6 3 -10 7 -10 20 0 12 10 14 10 8 1 -4 -7 -3 -20 2 -29 8 -15 10 -15 15 0
5 11 3 15 -5 10 -6 -4 -8 -3 -4 4 3 6 22 9 41 8 19 -2 38 0 41 5 3 5 11 6 17
2 19 -12 36 -12 43 -1 3 5 15 2 26 -9 20 -18 21 -18 9 4 -17 33 -13 38 9 12
10 -13 19 -20 20 -15 0 5 8 2 18 -5 15 -13 16 -12 3 4 -13 16 -12 19 7 23 12
4 18 12 16 19 -3 7 0 16 7 21 8 5 10 3 4 -6 -5 -8 -3 -11 6 -8 8 3 13 11 12
17 -4 14 3 14 30 -1 21 -11 21 -10 7 7 -14 17 -13 18 8 13 19 -5 21 -4 11 8
-6 8 -9 15 -5 15 3 1 11 3 16 4 6 1 14 3 19 4 5 0 18 9 27 18 17 17 18 17 11
0 -3 -9 -2 -17 3 -17 6 0 10 4 10 10 0 5 3 9 8 9 19 -3 32 2 32 12 0 8 -4 8
-14 0 -10 -8 -16 -9 -21 -1 -7 12 -9 11 31 15 28 3 31 1 28 -18 -4 -20 -4 -20
6 1 5 13 14 21 19 17 5 -3 16 3 23 14 14 20 47 13 34 -7 -3 -6 -1 -14 6 -18 7
-4 10 -4 6 1 -4 4 0 21 8 37 12 22 19 27 27 19 16 -16 27 -13 20 6 -5 12 -3
14 8 7 20 -12 40 -14 33 -3 -3 5 0 10 5 10 6 1 17 2 24 3 7 1 12 16 11 40 -1
37 -1 38 12 15 l13 -24 1 24 c0 17 4 22 16 17 14 -5 15 -4 4 9 -11 13 -10 14
5 9 13 -5 16 -4 10 5 -6 10 -3 11 15 1 12 -6 24 -9 28 -6 3 3 0 6 -6 6 -7 0
-12 5 -12 11 0 6 7 8 16 5 8 -3 12 -2 9 4 -4 6 4 14 16 18 l23 9 -22 5 c-12 4
-20 3 -18 -1 2 -3 -7 -11 -20 -18 -13 -6 -22 -7 -18 -2 7 13 -10 11 -23 -2 -8
-8 -13 -7 -18 2 -6 8 -4 10 5 4 9 -6 11 -4 5 6 -5 8 -5 11 0 7 10 -9 35 10 35
26 0 6 -5 3 -11 -7 -6 -9 -14 -15 -19 -12 -5 3 -11 1 -15 -5 -3 -5 -11 -10
-16 -10 -6 0 -7 6 -3 13 6 9 5 9 -8 0 -12 -11 -18 -9 -33 7 -17 19 -41 18 -29
-1 3 -5 10 -7 15 -4 5 4 9 2 9 -4 0 -5 -9 -9 -20 -8 -10 1 -17 3 -15 5 2 3 0
14 -6 25 -7 13 -7 17 -1 13 6 -3 13 -3 16 2 7 12 -27 11 -35 0 -3 -5 -9 -2
-12 7 -4 9 -3 13 3 10 6 -3 10 -1 10 4 0 6 -4 11 -9 11 -5 0 -8 11 -8 25 0 14
4 25 10 25 6 0 7 3 4 6 -4 4 -14 1 -22 -6 -13 -11 -13 -15 -3 -21 9 -6 9 -9 1
-9 -17 0 -25 17 -13 25 8 5 7 11 -1 21 -10 12 -9 13 6 8 12 -5 16 -4 11 4 -3
6 -2 13 3 16 5 4 13 1 17 -5 5 -8 3 -9 -6 -4 -9 5 -11 4 -6 -4 10 -16 26 -4
19 14 -3 8 0 15 7 15 6 0 9 -4 6 -8 -2 -4 13 -8 34 -7 32 0 36 2 27 14 -10 12
-9 12 9 3 30 -16 60 -8 87 24 17 20 24 23 24 11 0 -9 -5 -13 -11 -10 -6 3 -7
2 -3 -3 10 -11 58 -14 51 -2 -3 4 -10 6 -15 3 -5 -3 -6 1 -3 10 5 11 10 13 19
5 16 -13 47 -2 38 14 -4 8 -3 8 6 0 16 -15 53 -6 44 10 -5 7 -2 7 8 -1 16 -13
44 -12 56 2 4 4 2 5 -4 1 -7 -4 -13 -3 -13 2 0 6 7 12 15 16 8 3 15 1 15 -4 0
-6 5 -10 11 -10 5 0 7 5 4 10 -4 6 9 10 31 10 33 0 36 2 21 13 -15 10 -10 12
31 11 26 0 53 -3 60 -8 8 -5 10 -2 6 8 -3 9 -14 16 -23 17 -10 0 -12 2 -3 6 7
3 18 0 25 -5 14 -11 41 11 29 24 -4 4 -1 4 6 -1 10 -5 11 -10 3 -18 -6 -6 -11
-16 -11 -22 0 -5 5 -2 11 8 6 9 14 15 20 12 5 -3 6 1 2 11 -5 14 -3 15 18 4
23 -13 23 -12 9 5 -14 17 -14 17 7 7 16 -9 24 -9 29 0 4 6 3 8 -4 4 -6 -3 -14
-1 -18 6 -4 7 -4 10 1 6 4 -4 14 -3 22 3 7 6 13 8 13 4 0 -5 9 0 20 10 23 21
27 11 5 -11 -8 -9 -21 -12 -27 -8 -10 6 -11 4 0 -7 9 -10 15 -10 24 -1 8 8 15
8 23 2 9 -8 11 -3 8 17 l-4 28 16 -25 16 -25 -6 28 c-5 24 -4 27 9 15 7 -7 11
-17 8 -22 -3 -5 0 -6 6 -2 6 4 9 13 6 20 -3 8 0 17 7 22 8 4 10 3 5 -4 -4 -7
-2 -12 4 -12 6 0 8 -5 4 -13 -6 -8 -3 -8 9 1 9 8 22 10 28 6 8 -5 9 -3 4 6 -6
10 -4 12 11 6 14 -5 16 -4 8 4 -9 9 -17 9 -33 1 -12 -7 -21 -9 -21 -7 0 16 42
26 61 15 15 -8 19 -8 15 0 -4 6 0 11 9 11 10 0 13 5 9 12 -5 7 -3 8 7 2 23
-14 38 -13 32 3 -5 12 -7 12 -15 1 -8 -10 -9 -10 -5 2 2 9 15 14 36 14 22 -1
35 5 42 18 10 19 12 19 37 2 l27 -17 -20 23 -20 23 22 -12 c18 -9 22 -9 18 2
-4 8 3 13 16 14 18 2 19 0 7 -15 -12 -15 -11 -16 5 -3 9 7 17 10 17 6 0 -4 6
-2 14 4 11 9 15 9 18 -1 3 -8 6 -7 10 4 7 17 -7 19 -29 5 -8 -5 -13 -4 -13 2
0 6 5 12 10 12 6 1 15 3 20 4 6 1 12 4 15 5 7 3 22 7 36 9 5 0 7 5 4 11 -3 6
1 7 10 3 12 -4 13 -8 5 -13 -9 -5 -9 -9 -1 -14 15 -10 14 -23 -3 -23 -8 0 -12
6 -9 13 3 8 -3 12 -15 11 -12 0 -18 -5 -16 -9 3 -5 10 -6 15 -3 5 3 6 -1 3 -9
-3 -9 -2 -16 4 -16 5 0 12 -9 15 -20 3 -11 11 -20 19 -19 10 0 10 2 1 6 -7 2
-13 11 -13 20 0 13 2 12 15 -1 9 -8 21 -13 29 -10 7 3 13 -2 13 -10 0 -8 -6
-12 -14 -9 -7 3 -13 1 -13 -4 0 -14 38 -13 44 2 6 16 -19 39 -33 31 -13 -8
-25 13 -26 45 0 15 -6 34 -13 42 -11 13 -10 15 7 10 12 -3 29 -2 38 2 10 5 25
9 33 9 8 1 16 9 18 20 3 11 0 16 -7 11 -6 -3 -9 -11 -6 -16 4 -5 2 -9 -4 -9
-5 0 -9 8 -8 19 0 11 8 18 17 16 8 -1 20 2 27 7 7 6 14 5 19 -3 5 -8 3 -9 -6
-4 -9 6 -11 4 -5 -5 5 -9 4 -11 -3 -6 -17 10 -15 1 4 -14 12 -11 15 -11 12 1
-2 8 3 13 10 11 9 -1 7 6 -5 25 l-17 28 24 -20 c21 -18 23 -18 17 -2 -5 12 -3
16 5 11 8 -5 9 -2 4 11 -5 15 -4 16 9 5 12 -10 13 -16 3 -29 -11 -14 -11 -14
4 -3 9 8 15 19 12 26 -3 7 3 19 13 27 16 13 17 12 4 -3 -7 -10 -9 -18 -3 -18
14 0 33 25 25 33 -3 4 -1 7 6 7 7 0 10 4 7 8 -3 5 2 9 10 9 10 0 11 -4 4 -11
-5 -5 -10 -15 -10 -20 0 -6 5 -3 11 7 6 9 15 15 21 11 5 -4 4 4 -3 17 -11 21
-11 23 3 11 13 -10 18 -10 24 -1 4 7 3 9 -3 6 -5 -3 -10 0 -10 8 0 11 5 12 21
3 19 -10 20 -10 7 6 -13 16 -12 17 15 11 l29 -6 -25 16 c-16 10 -18 14 -6 11
13 -5 17 -2 13 8 -4 10 -1 13 8 9 8 -3 13 -8 11 -12 -3 -4 4 -8 15 -8 18 -2
18 0 -3 18 -17 16 -19 19 -5 15 11 -3 17 0 17 9 0 8 5 15 11 15 5 0 7 -5 3
-12 -4 -6 -3 -8 4 -4 6 3 9 16 7 27 -3 13 3 23 18 30 13 6 24 20 24 31 1 12 9
28 17 36 13 13 18 13 33 1 17 -13 17 -13 0 7 -17 21 -17 22 3 27 13 3 18 10
14 21 -3 9 -11 13 -17 9 -6 -3 -7 -1 -3 6 6 9 11 9 24 -1 13 -12 14 -10 4 9
-17 31 -15 40 4 17 8 -10 13 -13 9 -6 -4 7 1 12 12 13 14 0 13 2 -5 9 -20 8
-21 12 -10 30 7 11 17 20 22 20 4 0 3 -6 -3 -14 -8 -10 -9 -16 -1 -21 6 -4 10
-3 9 2 -1 4 0 11 1 16 4 12 7 26 9 38 0 5 5 8 10 4 6 -3 8 3 6 15 -2 11 0 22
4 24 12 8 12 244 0 252 -6 4 -6 11 2 20 9 11 9 14 -1 14 -8 0 -9 4 -3 12 16
21 10 53 -9 52 -10 -1 -16 2 -13 6 3 5 -1 10 -7 13 -10 3 -10 8 2 23 8 10 10
16 5 11 -4 -4 -16 5 -26 20 -14 21 -15 31 -7 47 11 20 10 20 -8 6 -10 -8 -15
-10 -11 -5 4 5 -3 15 -15 23 -13 7 -15 11 -6 8 9 -2 19 1 21 8 7 17 -8 42 -17
28 -3 -6 -1 -13 4 -15 6 -3 5 -4 -2 -3 -7 2 -12 9 -11 15 2 6 -2 11 -7 11 -6
0 -10 5 -10 11 0 5 4 8 8 5 4 -2 14 0 22 5 11 7 7 8 -12 5 -15 -3 -30 0 -33 5
-4 5 1 9 9 9 8 0 18 5 21 10 4 6 1 9 -7 8 -7 -2 -12 4 -12 13 1 12 -5 16 -21
14 -18 -1 -22 2 -20 16 4 21 -10 26 -19 7 -3 -7 -3 -1 0 14 8 36 -3 53 -22 37
-9 -7 -14 -8 -13 -3 5 26 -3 42 -27 52 -14 7 -22 17 -19 23 4 6 0 9 -11 7 -11
-2 -18 2 -17 9 1 6 -4 17 -13 23 -13 11 -12 15 3 34 17 19 17 20 1 7 -12 -9
-18 -10 -18 -2 0 6 -5 11 -11 11 -5 0 -7 -5 -3 -12 5 -7 3 -8 -6 -3 -10 6 -9
11 6 23 18 13 17 14 -8 8 -15 -3 -30 -2 -33 4 -3 5 0 7 8 4 8 -3 17 -1 21 4 3
5 0 9 -7 10 -27 2 -42 8 -45 17 -7 19 -24 35 -33 29 -13 -8 -11 10 2 23 9 9 7
10 -10 6 -13 -3 -21 -1 -21 6 0 7 4 10 8 7 4 -2 8 4 8 15 0 19 -1 19 -16 -1
l-16 -21 -23 25 c-13 14 -28 23 -34 19 -6 -3 -7 -1 -3 5 4 7 3 19 -2 28 -7 12
-11 13 -17 5 -10 -18 -35 6 -28 27 6 15 5 15 -10 3 -15 -12 -17 -12 -11 3 4
12 2 15 -9 10 -12 -4 -15 0 -13 18 3 21 0 23 -36 20 -38 -4 -39 -4 -33 24 5
26 4 27 -4 7 -10 -22 -22 -32 -20 -15 4 22 -3 31 -18 25 -11 -4 -14 -3 -9 5 4
7 1 12 -9 12 -9 0 -13 5 -10 10 3 6 -1 10 -10 10 -9 0 -13 -4 -10 -10 3 -5 1
-10 -4 -10 -12 0 -15 26 -3 33 4 2 1 2 -5 1 -7 -2 -17 5 -22 14 -6 9 -11 12
-11 7 0 -18 -34 -14 -60 6 -14 11 -18 18 -10 17 8 -2 18 -7 21 -12 4 -4 10 -3
13 3 4 6 4 11 -1 12 -4 0 -16 2 -25 4 -10 2 -22 -4 -27 -13 -7 -13 -10 -12
-15 6 -7 21 -17 26 -45 23 -7 -2 -10 3 -6 9 4 6 1 11 -6 9 -30 -4 -41 2 -35
16 3 8 2 14 -2 14 -22 -4 -31 3 -26 19 5 14 4 15 -5 2 -8 -11 -7 -18 6 -27 9
-7 14 -15 12 -18 -9 -8 -50 35 -44 46 4 5 1 9 -5 9 -7 0 -10 -7 -7 -15 4 -8 1
-17 -5 -21 -7 -5 -8 -2 -3 6 6 10 4 12 -8 7 -19 -7 -32 8 -16 19 8 5 9 3 4 -6
-5 -9 -4 -11 4 -6 9 6 9 11 0 22 -13 15 -23 19 -15 5 3 -5 -3 -11 -14 -14 -11
-3 -23 -1 -26 4 -3 5 -10 6 -16 3 -7 -5 -9 -1 -5 9 3 9 1 19 -5 23 -6 4 -8 3
-5 -3 14 -22 -27 -24 -43 -3 -13 17 -18 18 -29 8 -11 -11 -13 -10 -6 1 6 10 2
12 -16 6 -16 -4 -20 -3 -11 3 11 7 8 10 -11 14 -19 4 -24 1 -19 -10 3 -10 1
-13 -6 -8 -7 4 -12 13 -12 19 0 19 -37 39 -46 25 -5 -7 -3 -8 6 -3 9 6 11 4 5
-5 -6 -9 -4 -11 5 -5 9 5 11 4 6 -4 -6 -9 -11 -9 -21 -1 -8 7 -20 8 -27 4 -10
-6 -11 -5 -1 7 10 12 8 17 -8 27 -12 8 -19 9 -19 1 0 -6 -5 -7 -12 -2 -19 11
-39 13 -32 2 3 -5 10 -6 16 -3 7 4 8 2 4 -4 -13 -22 -42 2 -37 31 1 5 -3 5 -9
2 -6 -4 -9 -14 -6 -22 4 -9 1 -13 -6 -10 -7 2 -13 11 -12 19 1 8 -5 15 -12 15
-7 0 -11 -4 -9 -8 6 -8 -32 -19 -40 -11 -3 3 -13 7 -23 8 -9 2 -18 8 -20 14
-3 7 -9 4 -17 -7 -11 -14 -16 -15 -28 -5 -10 9 -17 10 -22 2 -3 -6 -11 -8 -16
-5 -18 12 -49 14 -49 4 0 -6 -7 -3 -16 5 -17 18 -28 21 -19 7 3 -5 0 -13 -6
-17 -8 -5 -9 -3 -4 6 6 10 2 12 -18 8 -24 -5 -25 -3 -15 16 11 21 11 21 -10 2
-12 -10 -19 -23 -15 -29 3 -6 1 -7 -6 -3 -6 4 -9 11 -7 15 3 4 -9 7 -27 6 -18
-1 -38 4 -46 9 -12 9 -12 8 -3 -9 9 -19 8 -21 -19 -20 -21 0 -28 4 -24 14 4
11 3 12 -10 1 -8 -7 -13 -15 -10 -19 2 -4 -16 -6 -41 -5 -24 2 -42 -1 -39 -6
3 -5 0 -12 -6 -16 -7 -4 -9 -3 -5 4 3 6 2 13 -4 17 -6 4 -7 12 -3 18 3 7 -2 5
-13 -4 -10 -9 -26 -15 -35 -14 -9 2 -16 -3 -16 -11 0 -10 4 -11 14 -3 7 6 13
8 13 4 0 -4 7 -2 15 5 10 9 15 9 15 1 0 -6 -4 -12 -10 -12 -5 -1 -14 -2 -19
-3 -5 0 -13 -4 -17 -8 -4 -4 -14 -2 -22 5 -13 10 -15 9 -8 -8 6 -16 5 -18 -5
-7 -17 16 -34 16 -23 -1 5 -7 2 -5 -7 5 -15 15 -18 16 -23 2 -3 -8 -2 -13 2
-10 5 3 9 -1 9 -8 0 -7 -6 -13 -13 -13 -7 0 -11 4 -8 8 2 4 0 10 -6 14 -5 3
-10 -1 -10 -9 0 -9 -5 -16 -11 -16 -5 0 -7 6 -3 13 6 9 5 9 -7 0 -12 -10 -18
-10 -29 0 -10 10 -11 9 -5 -2 6 -11 4 -13 -8 -8 -9 3 -19 1 -23 -5 -4 -7 -3
-8 4 -4 7 4 12 2 12 -3 0 -6 -6 -11 -12 -11 -9 0 -8 -4 2 -10 9 -6 10 -10 3
-10 -7 0 -17 8 -22 18 -10 16 -11 15 -12 -3 -1 -11 -1 -24 0 -28 1 -5 -3 -6
-9 -2 -6 3 -7 11 -4 17 4 6 -2 5 -15 -1 -12 -7 -27 -9 -33 -5 -7 4 -8 3 -4 -4
6 -11 -5 -16 -26 -13 -3 0 -5 -7 -3 -17 4 -26 -4 -33 -26 -22 -16 9 -19 7 -19
-9 0 -11 -4 -23 -10 -26 -5 -3 -7 0 -4 8 3 8 -1 14 -10 14 -8 0 -18 -7 -20
-14 -3 -8 -1 -11 4 -8 6 3 10 1 10 -4 0 -6 -7 -11 -16 -11 -9 0 -12 -5 -8 -12
4 -7 3 -8 -4 -4 -6 4 -10 12 -8 19 1 7 1 9 -1 5 -3 -5 -9 -8 -14 -8 -6 0 -7 4
-4 10 3 6 -1 7 -10 4 -14 -6 -14 -8 2 -19 15 -11 13 -15 -26 -34 -25 -13 -41
-27 -38 -35 3 -7 -1 -13 -9 -13 -7 0 -11 4 -8 8 2 4 -1 11 -7 15 -8 5 -9 3 -4
-6 6 -10 4 -12 -10 -6 -15 5 -16 4 -5 -9 10 -12 10 -15 -2 -15 -8 0 -20 6 -28
13 -12 10 -12 9 -1 -5 10 -14 9 -18 -11 -29 -13 -7 -24 -11 -26 -10 -2 2 -7
-1 -10 -5 -4 -4 -1 -4 6 0 7 4 12 2 12 -6 0 -9 3 -9 10 2 5 8 10 11 10 5 0 -5
-18 -25 -39 -42 -37 -31 -41 -32 -56 -17 -13 14 -19 14 -28 4 -8 -9 -8 -11 -1
-7 7 4 17 0 24 -8 11 -13 10 -14 -4 -9 -12 5 -15 2 -9 -12 5 -13 3 -15 -8 -8
-19 11 -40 14 -34 4 3 -4 -2 -10 -10 -14 -8 -3 -15 -11 -15 -18 0 -10 2 -10 9
0 7 11 9 11 14 0 6 -17 -24 -20 -36 -4 -5 6 -7 -1 -4 -17 2 -15 2 -25 -1 -22
-9 8 -32 -17 -25 -28 3 -6 1 -7 -6 -3 -6 4 -9 11 -6 16 9 14 -31 18 -50 4 -10
-7 -23 -11 -29 -7 -6 3 0 -7 14 -23 14 -15 18 -23 8 -16 -11 9 -18 10 -23 2
-4 -6 -12 -9 -18 -8 -7 1 -23 -3 -37 -10 -24 -13 -24 -13 -5 4 20 16 19 16 -7
10 -14 -3 -34 -9 -45 -13 -15 -6 -16 -5 -5 9 11 13 11 18 0 24 -7 4 -10 4 -6
-1 4 -4 0 -14 -10 -21 -22 -17 -29 -17 -29 1 0 8 4 12 8 9 4 -2 10 0 13 4 3 5
-10 8 -29 7 -27 -2 -32 1 -28 13 5 11 3 13 -7 7 -8 -5 -11 -3 -8 6 2 7 -1 25
-8 38 -7 14 -11 28 -9 31 2 4 -2 7 -10 7 -8 0 -12 -3 -10 -7 2 -3 -1 -12 -7
-20 -8 -13 -9 -12 -5 1 3 9 0 22 -6 29 -9 10 -9 11 0 6 6 -3 14 -2 18 4 3 5 1
10 -4 10 -6 0 -11 5 -11 11 0 6 6 9 14 6 10 -4 12 0 9 14 -3 10 -9 17 -13 14
-10 -6 -8 15 3 33 5 6 5 17 1 24 -5 7 -3 8 5 4 8 -6 11 -2 9 10 -2 13 3 19 14
18 10 -1 14 4 11 12 -3 8 -9 12 -13 9 -5 -3 -12 0 -16 6 -4 8 -3 9 4 5 8 -5
12 2 12 19 0 17 4 24 12 19 7 -4 8 -3 4 5 -6 9 -11 9 -21 1 -11 -9 -14 -7 -12
9 0 11 5 17 11 14 5 -4 7 1 3 10 -4 11 -1 17 8 17 7 0 16 4 20 9 3 6 -7 8 -22
6 -27 -4 -27 -4 -5 7 12 6 22 15 22 20 0 5 -6 6 -12 2 -10 -6 -10 -5 -1 8 7 8
9 19 5 23 -4 5 -1 5 6 1 7 -4 9 -12 6 -18 -4 -7 -2 -8 4 -4 8 5 8 15 2 32 -7
18 -7 23 1 18 7 -4 10 -1 7 7 -3 8 -11 13 -18 11 -11 -3 -11 0 0 12 7 9 20 16
29 16 13 0 14 2 1 9 -8 6 -18 7 -22 5 -4 -3 -8 -1 -8 4 0 5 11 14 23 19 13 6
24 18 24 27 0 8 -5 13 -11 10 -6 -3 -3 1 7 9 20 16 23 32 5 21 -10 -6 -10 -5
-1 7 9 11 10 18 1 27 -8 8 -6 10 5 8 9 -1 20 -6 24 -11 4 -4 3 -5 -4 -2 -13 8
-11 -19 3 -30 5 -4 6 -4 2 1 -4 5 -3 15 2 22 8 8 6 17 -5 28 -15 15 -15 16 7
16 18 0 20 2 8 9 -8 6 -18 7 -24 4 -5 -3 -6 -1 -3 5 8 11 24 11 47 -2 8 -4 5
1 -7 12 -27 24 -29 30 -7 28 10 0 18 8 21 24 2 13 8 29 13 34 13 13 13 26 -1
26 -5 0 -8 -4 -5 -9 3 -5 -1 -14 -8 -20 -11 -10 -14 -9 -12 2 1 8 6 21 12 28
6 8 9 24 8 36 0 12 2 22 5 21 22 -2 41 4 41 13 0 5 -4 7 -10 4 -6 -4 -7 1 -3
11 5 13 3 15 -7 9 -9 -5 -11 -4 -6 4 5 8 12 9 19 2 9 -7 12 -1 13 19 1 20 -3
27 -12 23 -8 -3 -11 -10 -7 -16 4 -6 1 -7 -7 -2 -10 6 -7 12 11 25 21 16 22
20 9 37 -14 17 -14 17 3 4 15 -12 20 -12 33 5 9 10 13 14 10 8 -3 -7 1 -14 9
-17 9 -4 12 -1 9 7 -3 8 0 17 7 22 7 4 10 3 6 -3 -4 -6 -1 -13 7 -16 23 -9 27
5 9 26 -17 19 -17 20 5 8 12 -6 23 -9 23 -6 1 3 3 10 4 15 1 6 3 15 4 21 0 5
5 8 9 5 5 -3 9 1 9 9 0 12 -4 12 -19 -2 -10 -9 -16 -23 -13 -30 2 -8 1 -11 -4
-8 -6 3 -9 14 -8 25 1 10 5 16 9 14 7 -5 12 10 9 28 0 4 6 5 14 1 13 -4 14 -1
5 22 -12 33 -12 35 1 35 5 0 8 -4 5 -8 -2 -4 0 -14 6 -22 8 -12 9 -12 4 3 -3
9 -1 17 5 17 6 0 1 9 -12 21 -13 11 -18 18 -11 14 6 -3 12 -1 12 5 0 6 4 9 9
5 5 -3 12 -1 15 4 4 5 1 13 -5 17 -8 5 -9 3 -4 -7 5 -8 4 -10 0 -6 -15 13 -15
39 1 33 14 -5 38 27 27 37 -3 4 0 13 6 21 7 8 10 20 6 26 -3 5 1 10 10 10 9 0
14 4 10 10 -3 5 -13 6 -23 3 -18 -7 -17 -5 12 17 12 9 17 10 12 3 -5 -9 -2
-11 9 -7 14 6 14 8 -2 21 -10 8 -13 12 -8 9 6 -2 17 4 23 15 12 18 11 19 -7
10 -25 -14 -42 -14 -18 0 9 6 14 15 11 21 -4 7 -2 8 4 4 7 -4 12 -2 12 4 0 6
6 8 13 4 6 -4 9 -4 5 1 -4 4 -3 13 2 20 7 8 5 12 -5 12 -8 0 -12 -3 -10 -7 2
-4 -2 -7 -10 -7 -11 0 -12 4 -4 14 6 7 17 13 24 13 7 0 12 8 11 18 -1 11 5 16
17 14 9 -2 17 2 17 7 0 5 -9 8 -19 6 -11 -2 -26 4 -33 13 -12 15 -11 16 5 3
12 -9 17 -10 17 -2 0 7 4 10 8 7 5 -3 9 1 9 8 0 9 -7 12 -16 9 -10 -4 -9 0 4
10 17 14 18 19 7 36 -7 12 -9 21 -5 20 23 -4 32 3 26 19 -5 14 -3 15 8 5 7 -7
18 -13 24 -13 5 0 2 5 -8 11 -9 6 -15 14 -12 20 9 13 -9 11 -22 -2 -7 -7 -5 4
4 24 12 27 20 34 29 26 8 -7 15 -6 20 2 4 7 3 9 -4 5 -6 -3 -16 3 -23 15 -10
20 -9 21 10 16 12 -3 19 -1 15 4 -3 5 -13 9 -22 9 -13 0 -13 2 4 16 10 8 14
13 7 10 -6 -4 -14 -2 -18 4 -3 5 1 10 10 10 15 0 15 1 0 16 -14 15 -14 17 1
29 15 11 15 13 -7 28 -21 16 -22 17 -4 17 16 0 17 2 5 9 -8 6 -17 8 -20 6 -3
-2 -6 11 -6 28 1 19 -4 31 -11 30 -8 -2 -10 11 -6 39 4 39 3 41 -14 27 -17
-13 -17 -13 -1 7 14 16 15 23 6 32 -9 9 -9 12 3 12 12 0 12 2 -1 10 -8 5 -19
10 -25 10 -5 0 -3 -5 5 -10 8 -5 11 -10 6 -10 -5 0 -2 -8 5 -17 12 -16 12 -17
-2 -6 -9 7 -20 9 -24 5 -5 -4 -5 -1 -1 6 4 7 2 20 -6 29 -7 9 -8 14 -3 11 6
-4 17 -3 25 3 12 7 10 9 -8 9 -18 0 -22 4 -18 25 3 18 -1 28 -17 37 -12 7 -24
13 -27 13 -3 0 -13 5 -24 11 -16 10 -17 12 -2 17 11 5 15 3 10 -5 -5 -7 -3 -8
6 -3 8 5 11 4 7 -1 -3 -5 3 -10 14 -10 18 0 18 2 5 12 -9 6 -15 13 -13 15 1 2
0 3 -2 2 -2 -2 -11 3 -19 10 -13 10 -14 9 -7 -3 8 -13 6 -13 -7 -2 -9 8 -14
20 -11 28 3 8 -1 14 -11 14 -9 0 -16 5 -16 11 0 5 4 7 10 4 6 -4 7 1 3 11 -4
10 -8 13 -10 7 -6 -16 -33 -4 -33 13 0 8 -5 14 -11 14 -5 0 -7 -6 -3 -12 5 -9
2 -9 -9 1 -9 7 -17 19 -17 25 0 6 4 5 9 -3 7 -10 9 -6 8 13 -2 24 -3 25 -14 9
-7 -9 -13 -22 -13 -27 0 -6 -4 -5 -9 2 -4 7 -15 14 -24 16 -28 4 -58 38 -52
60 3 12 2 15 -1 8 -3 -6 -11 -9 -16 -6 -7 4 -8 2 -4 -4 5 -8 2 -10 -8 -6 -9 3
-13 10 -10 15 8 13 -30 11 -43 -2 -8 -8 -13 -7 -18 2 -5 8 -4 10 3 5 7 -4 12
-1 12 9 0 9 -4 13 -10 10 -5 -3 -10 -2 -10 4 0 6 -11 6 -31 1 -26 -8 -29 -7
-19 5 15 18 6 19 -23 3 -19 -10 -20 -9 -10 3 10 12 -3 15 -88 17 -77 3 -99 1
-99 -10 0 -8 -3 -9 -8 -3 -9 12 -54 16 -46 4 3 -5 0 -9 -6 -9 -6 0 -8 -5 -4
-12 4 -7 3 -8 -5 -4 -6 4 -9 11 -6 16 6 10 -10 22 -18 13z m-23 -40 c4 -10 4
-14 0 -10 -4 4 -12 2 -19 -3 -8 -7 -12 -5 -12 5 0 8 4 12 9 9 4 -3 8 0 8 5 0
16 7 13 14 -6z m766 -279 c0 -2 -7 -4 -15 -4 -8 0 -15 4 -15 10 0 5 7 7 15 4
8 -4 15 -8 15 -10z m-1328 -166 c-8 -8 -9 -4 -5 13 4 13 8 18 11 10 2 -7 -1
-18 -6 -23z m1432 -136 c3 -5 -1 -9 -9 -9 -8 0 -12 4 -9 9 3 4 7 8 9 8 2 0 6
-4 9 -8z m-1864 -11 c0 -3 -13 -7 -30 -7 -16 -1 -30 1 -30 5 0 3 14 7 30 7 17
1 30 -1 30 -5z m519 -39 c5 2 9 0 10 -4 3 -22 -1 -28 -16 -28 -17 -1 -17 -1 0
-14 14 -11 15 -15 4 -19 -8 -3 -20 -1 -27 3 -18 11 -32 2 -24 -13 5 -8 3 -8
-7 1 -19 17 -29 15 -22 -5 3 -10 3 -15 -1 -12 -4 4 -9 19 -12 34 -3 15 -6 30
-7 34 -1 3 3 7 8 8 6 0 9 -3 7 -9 -1 -5 2 -6 8 -3 6 4 9 13 6 20 -3 9 2 11 16
7 15 -4 19 -2 13 7 -6 10 -3 11 13 2 12 -6 25 -10 31 -9z m-659 4 c0 -3 -4 -8
-10 -11 -5 -3 -10 -1 -10 4 0 6 5 11 10 11 6 0 10 -2 10 -4z m464 -44 c3 -5
-1 -9 -9 -9 -8 0 -15 4 -15 9 0 4 4 8 9 8 6 0 12 -4 15 -8z m-137 -34 c-3 -8
-6 -5 -6 6 -1 11 2 17 5 13 3 -3 4 -12 1 -19z m-456 -55 c13 -17 13 -17 -6 -3
-11 8 -22 16 -24 17 -2 2 0 3 6 3 6 0 17 -8 24 -17z m188 6 c7 10 9 10 14 -1
7 -20 -29 -20 -45 0 -12 15 -11 16 5 3 15 -12 20 -12 26 -2z m276 -27 c-7 -8
-35 7 -35 18 0 6 7 6 20 -2 10 -7 17 -14 15 -16z m-341 6 c-3 -4 -11 -5 -19
-1 -21 7 -19 12 4 10 11 0 18 -5 15 -9z m306 -17 c0 -4 -6 -8 -13 -8 -8 0 -14
6 -14 13 0 7 6 10 14 7 7 -3 13 -8 13 -12z m383 -61 c3 6 5 6 3 -1 -3 -17 -33
-20 -33 -3 0 10 4 11 13 3 8 -7 14 -6 17 1z m-636 -15 c0 -8 -4 -12 -9 -9 -5
3 -6 10 -3 15 9 13 12 11 12 -6z m904 -138 c-10 -9 -11 -8 -5 6 3 10 9 15 12
12 3 -3 0 -11 -7 -18z m26 -103 c-3 -3 -12 -4 -19 -1 -8 3 -5 6 6 6 11 1 17
-2 13 -5z m-12 -74 c-3 -5 -12 -10 -18 -10 -7 0 -6 4 3 10 19 12 23 12 15 0z
m890 -21 c-4 -5 -12 -9 -18 -8 -9 0 -8 2 1 6 6 2 9 10 6 15 -4 7 -2 8 5 4 6
-4 9 -12 6 -17z m-921 -158 c3 -5 -2 -15 -12 -22 -15 -13 -16 -12 -4 3 10 13
10 17 0 21 -9 4 -9 6 -1 6 6 1 14 -3 17 -8z m-34 -70 c0 -6 -4 -12 -8 -15 -5
-3 -9 1 -9 9 0 8 4 15 9 15 4 0 8 -4 8 -9z m707 -296 c0 -8 -4 -12 -9 -9 -5 3
-6 10 -3 15 9 13 12 11 12 -6z m-72 -193 c-3 -3 -11 0 -18 7 -9 10 -8 11 6 5
10 -3 15 -9 12 -12z m1359 -11 c-9 -9 -34 -9 -34 -1 0 5 9 8 20 7 10 -1 17 -3
14 -6z m476 -41 c-18 -12 -30 -13 -30 -2 0 4 10 9 22 9 18 2 20 0 8 -7z m-896
-61 c-3 -5 -10 -7 -15 -3 -5 3 -7 10 -3 15 3 5 10 7 15 3 5 -3 7 -10 3 -15z
m-98 -41 c4 -7 3 -10 -1 -5 -5 4 -19 0 -32 -8 -13 -9 -23 -12 -23 -7 0 7 25
24 47 31 1 1 5 -5 9 -11z m-1796 -12 c0 -2 -7 -7 -16 -10 -8 -3 -12 -2 -9 4 6
10 25 14 25 6z m3425 -126 c3 -5 1 -10 -4 -10 -6 0 -11 5 -11 10 0 6 2 10 4
10 3 0 8 -4 11 -10z m-1953 -67 c-6 -2 -9 -10 -6 -15 4 -7 2 -8 -5 -4 -13 9
-5 26 12 25 9 0 8 -2 -1 -6z m2128 -43 c0 -5 -2 -10 -4 -10 -3 0 -8 5 -11 10
-3 6 -1 10 4 10 6 0 11 -4 11 -10z m-2293 -92 c2 -17 0 -19 -7 -8 -5 8 -6 18
-4 22 8 12 10 10 11 -14z m-404 -46 c7 -9 6 -11 -7 -6 -9 3 -16 16 -15 28 0
14 2 16 6 6 3 -8 10 -21 16 -28z m461 10 c3 -5 -1 -9 -9 -9 -8 0 -12 4 -9 9 3
4 7 8 9 8 2 0 6 -4 9 -8z m-181 -35 c3 -8 -5 -14 -21 -15 -25 -2 -25 -2 -6 13
23 18 21 17 27 2z m-328 -47 c3 -5 1 -10 -4 -10 -6 0 -11 5 -11 10 0 6 2 10 4
10 3 0 8 -4 11 -10z m5 -40 c0 -5 -2 -10 -4 -10 -3 0 -8 5 -11 10 -3 6 -1 10
4 10 6 0 11 -4 11 -10z m-45 -20 c3 -5 1 -10 -4 -10 -6 0 -11 5 -11 10 0 6 2
10 4 10 3 0 8 -4 11 -10z m89 -18 c3 -5 -1 -9 -9 -9 -8 0 -12 4 -9 9 3 4 7 8
9 8 2 0 6 -4 9 -8z m446 -42 c5 0 7 8 4 18 -4 10 -3 13 3 6 4 -6 20 -10 35
-10 14 1 26 -3 25 -9 -1 -5 3 -9 9 -8 6 1 11 -4 11 -12 0 -11 -4 -11 -23 1
-18 12 -24 13 -30 2 -4 -7 -4 -10 1 -6 11 11 36 -12 28 -25 -4 -6 2 -8 18 -4
23 6 23 5 5 -8 -17 -13 -21 -11 -40 13 -11 14 -19 33 -18 41 3 11 0 12 -10 4
-19 -15 -50 -12 -43 4 3 8 6 20 6 26 1 7 4 2 6 -10 2 -13 8 -23 13 -23z m-30
24 c0 -8 -19 -13 -24 -6 -3 5 1 9 9 9 8 0 15 -2 15 -3z m-86 -13 c3 -4 16 -7
28 -6 13 1 15 0 5 -2 -9 -2 -15 -8 -12 -13 3 -5 0 -12 -7 -16 -7 -4 -10 -4 -6
1 9 9 -9 35 -24 35 -6 0 -6 -6 1 -14 14 -17 2 -27 -28 -21 -11 2 -21 -1 -21
-7 0 -6 -3 -9 -6 -5 -3 3 1 15 9 27 12 17 15 18 20 5 4 -8 12 -15 18 -15 8 0
9 4 0 13 -6 8 -8 17 -4 20 9 10 21 9 27 -2z m-111 -16 c-3 -9 -8 -14 -10 -11
-3 3 -2 9 2 15 9 16 15 13 8 -4z m31 -7 c-10 -13 -20 -25 -21 -27 -2 -2 -3 1
-3 7 0 11 27 42 37 42 3 0 -2 -10 -13 -22z m-146 -8 c-7 -10 -14 -17 -17 -15
-4 4 18 35 25 35 2 0 -1 -9 -8 -20z m306 4 c3 -8 2 -12 -4 -9 -6 3 -10 10 -10
16 0 14 7 11 14 -7z m-224 -24 c5 0 6 8 3 18 -6 16 -6 16 10 0 9 -9 17 -19 17
-21 0 -9 -55 -2 -62 8 -14 19 -8 27 8 11 8 -9 19 -16 24 -16z m-155 11 c3 -5
2 -12 -3 -15 -5 -3 -9 1 -9 9 0 17 3 19 12 6z m105 -6 c11 -13 10 -14 -4 -9
-9 3 -16 10 -16 15 0 13 6 11 20 -6z m-133 -21 c9 -2 21 -8 27 -15 8 -9 6 -9
-9 -2 -11 6 -25 9 -30 7 -6 -2 -16 6 -24 18 -13 21 -13 22 3 8 10 -8 25 -15
33 -16z m44 3 c-10 -9 -11 -8 -5 6 3 10 9 15 12 12 3 -3 0 -11 -7 -18z m-81
-18 c15 -28 5 -23 -15 7 -9 15 -12 23 -6 20 6 -4 16 -16 21 -27z m-31 2 c8
-15 7 -18 -7 -18 -46 0 -63 -4 -57 -13 3 -5 2 -10 -4 -10 -5 0 -11 6 -14 13
-2 6 -8 9 -12 5 -4 -4 -2 -16 6 -25 13 -17 13 -17 -4 -4 -17 13 -18 13 -15 -4
2 -12 -4 -21 -14 -23 -10 -2 -18 1 -18 7 0 6 8 7 18 4 15 -6 15 -5 3 10 -9 12
-10 17 -2 17 7 0 10 4 7 9 -8 13 39 30 65 24 17 -5 20 -3 14 8 -7 11 -5 11 10
-1 17 -14 18 -13 12 3 -9 23 0 22 12 -2z m151 15 c0 -3 -4 -8 -10 -11 -5 -3
-10 -1 -10 4 0 6 5 11 10 11 6 0 10 -2 10 -4z m30 0 c0 -3 -4 -8 -10 -11 -5
-3 -10 -1 -10 4 0 6 5 11 10 11 6 0 10 -2 10 -4z m450 0 c0 -2 -8 -10 -17 -17
-16 -13 -17 -12 -4 4 13 16 21 21 21 13z m100 -12 c0 -2 -7 -4 -15 -4 -8 0
-15 4 -15 10 0 5 7 7 15 4 8 -4 15 -8 15 -10z m-63 -22 c-4 11 -1 15 11 13 9
-2 18 -4 20 -5 1 -2 7 -4 12 -5 6 -1 13 -4 18 -5 4 -1 10 -2 13 -2 4 1 5 -13
3 -30 -4 -27 -2 -29 13 -17 15 13 15 12 2 -8 -9 -16 -16 -19 -21 -10 -7 11
-12 3 -9 -15 0 -5 -4 -7 -10 -5 -6 1 -14 -4 -17 -12 -3 -8 0 -11 7 -7 6 4 11
2 11 -4 0 -7 -8 -9 -20 -5 -16 5 -19 3 -14 -12 5 -15 4 -15 -5 -3 -5 8 -14 11
-18 6 -4 -4 1 -14 11 -22 11 -8 15 -14 10 -14 -6 0 -15 5 -21 11 -14 14 -36 2
-27 -14 3 -7 -2 -3 -10 7 -9 11 -16 25 -16 30 0 6 4 4 10 -4 5 -8 12 -11 16
-7 4 3 1 15 -7 24 -11 15 -11 16 1 6 17 -15 34 -17 25 -3 -4 6 1 7 12 3 10 -3
15 -3 11 2 -4 4 -2 15 5 23 10 13 9 15 -5 9 -10 -3 -18 -2 -18 3 0 6 7 10 15
10 8 0 14 3 14 8 -3 20 2 31 15 26 8 -3 17 -1 21 5 3 7 0 8 -9 5 -9 -4 -16 -1
-16 6 0 7 -7 4 -17 -7 -10 -10 -17 -17 -16 -14 5 9 -20 31 -36 31 -13 -1 -13
-3 3 -15 24 -18 14 -20 -14 -3 -19 12 -19 13 2 24 18 10 25 9 36 -5 13 -15 13
-15 9 1z m108 -11 c3 -5 2 -12 -3 -15 -5 -3 -9 1 -9 9 0 17 3 19 12 6z m2426
-14 c-10 -9 -11 -8 -5 6 3 10 9 15 12 12 3 -3 0 -11 -7 -18z m-3346 -7 c-3 -5
-12 -10 -18 -10 -7 0 -6 4 3 10 19 12 23 12 15 0z m1040 0 c3 -5 1 -10 -4 -10
-6 0 -11 5 -11 10 0 6 2 10 4 10 3 0 8 -4 11 -10z m400 0 c3 -5 1 -10 -4 -10
-6 0 -11 5 -11 10 0 6 2 10 4 10 3 0 8 -4 11 -10z m-498 -25 c0 -8 -4 -12 -9
-9 -5 3 -6 10 -3 15 9 13 12 11 12 -6z m-1000 -20 c0 -8 -4 -12 -9 -9 -4 3 -8
9 -8 15 0 5 4 9 8 9 5 0 9 -7 9 -15z m58 5 c3 -5 2 -10 -4 -10 -5 0 -13 5 -16
10 -3 6 -2 10 4 10 5 0 13 -4 16 -10z m1024 3 c-5 -29 24 -53 36 -32 4 5 1 8
-5 7 -7 -2 -14 4 -15 13 -2 11 3 16 14 15 9 -2 16 -9 16 -17 1 -8 6 -13 13
-12 9 2 9 -3 0 -22 -6 -14 -18 -25 -26 -25 -12 0 -12 -3 -2 -15 9 -10 9 -15 1
-15 -6 0 -11 5 -11 11 0 5 -6 7 -12 3 -8 -5 -8 -1 1 10 13 15 13 19 1 26 -8 5
-17 7 -20 5 -4 -2 -7 9 -7 25 0 17 4 30 9 30 4 0 7 -3 7 -7z m377 -8 c-1 -8
-5 -17 -8 -21 -5 -4 -4 16 1 34 3 9 9 -1 7 -13z m-1546 -15 c13 7 21 7 25 0 3
-5 11 -10 17 -10 6 0 5 7 -3 17 -13 15 -12 15 6 5 11 -6 27 -16 35 -22 12 -9
10 -10 -9 -5 -16 5 -21 4 -17 -4 5 -7 1 -8 -10 -4 -13 5 -15 3 -9 -8 6 -11 5
-12 -5 -2 -14 13 -55 -1 -45 -16 2 -5 -2 -14 -10 -21 -8 -7 -12 -16 -10 -21 3
-4 -4 -6 -16 -4 -25 5 -38 15 -20 15 7 0 9 5 6 10 -4 6 -11 7 -17 4 -7 -4 -8
-2 -4 5 4 6 11 9 16 6 5 -3 11 -1 15 5 3 6 -1 13 -10 16 -14 6 -14 8 2 19 10
7 21 11 25 9 5 -3 9 3 9 13 1 17 2 17 6 1 3 -14 9 -16 23 -8z m120 6 c0 -3 -4
-8 -10 -11 -5 -3 -10 -1 -10 4 0 6 5 11 10 11 6 0 10 -2 10 -4z m1361 -13 c13
-16 12 -17 -3 -4 -17 13 -22 21 -14 21 2 0 10 -8 17 -17z m483 9 c3 -5 -1 -9
-9 -9 -8 0 -12 4 -9 9 3 4 7 8 9 8 2 0 6 -4 9 -8z m37 -9 c13 -16 12 -17 -3
-4 -17 13 -22 21 -14 21 2 0 10 -8 17 -17z m1553 1 c3 -8 2 -12 -4 -9 -6 3
-10 10 -10 16 0 14 7 11 14 -7z m-1884 -8 c0 -3 -4 -8 -10 -11 -5 -3 -10 -1
-10 4 0 6 5 11 10 11 6 0 10 -2 10 -4z m-500 -27 c0 -4 -8 -9 -18 -11 -10 -3
-19 0 -19 6 0 7 9 12 19 12 10 0 18 -3 18 -7z m-161 -12 c8 -10 7 -14 -2 -14
-8 0 -14 6 -14 14 0 7 1 13 2 13 2 0 8 -6 14 -13z m-116 -12 c4 -8 1 -17 -5
-21 -7 -4 -8 -3 -4 4 4 7 2 12 -3 12 -6 0 -11 -7 -11 -17 0 -9 -3 -14 -6 -10
-8 7 5 47 16 47 4 0 10 -7 13 -15z m217 11 c0 -3 -4 -8 -10 -11 -5 -3 -10 -1
-10 4 0 6 5 11 10 11 6 0 10 -2 10 -4z m913 -21 c-7 -21 -12 -19 -10 4 0 11 5
18 9 15 4 -3 5 -11 1 -19z m122 15 c3 -5 1 -10 -4 -10 -6 0 -11 5 -11 10 0 6
2 10 4 10 3 0 8 -4 11 -10z m-1039 -19 c8 6 17 9 21 5 3 -3 0 -6 -8 -6 -12 0
-12 -2 0 -9 15 -10 7 -31 -12 -31 -7 0 -6 4 3 10 8 5 12 10 8 10 -18 0 -24 2
-35 12 -14 11 -19 -3 -6 -16 4 -3 8 -14 9 -22 1 -9 -1 -13 -4 -9 -4 4 -7 12
-7 18 -1 7 -6 11 -12 10 -7 -2 -11 6 -10 17 1 10 5 16 9 14 4 -3 8 1 8 8 0 8
5 6 11 -5 8 -14 14 -16 25 -6z m-266 -6 c9 -10 9 -15 1 -15 -6 0 -11 4 -11 9
0 5 -11 4 -24 -2 -20 -10 -22 -15 -13 -26 9 -12 9 -13 0 -7 -8 4 -13 2 -13 -5
0 -18 -10 -5 -14 18 -3 13 2 19 17 21 12 0 23 6 25 12 5 14 17 13 32 -5z m101
-8 c-10 -9 -11 -8 -5 6 3 10 9 15 12 12 3 -3 0 -11 -7 -18z m459 19 c0 -2 -8
-10 -17 -17 -16 -13 -17 -12 -4 4 13 16 21 21 21 13z m46 -22 c1 -9 0 -13 -4
-10 -3 4 -7 14 -8 22 -1 9 0 13 4 10 3 -4 7 -14 8 -22z m-718 -29 c0 -14 -5
-28 -9 -31 -5 -3 -9 -2 -8 3 4 21 -2 34 -13 27 -7 -4 -8 -3 -4 5 4 6 12 8 18
5 8 -5 9 -1 5 10 -4 9 -3 15 2 12 5 -3 9 -17 9 -31z m-778 3 c0 7 5 12 12 12
9 0 9 -3 0 -12 -14 -14 -16 -32 -3 -24 5 4 8 -2 6 -11 -1 -10 -8 -17 -14 -15
-13 2 -14 -8 -2 -26 7 -11 9 -11 14 2 4 9 12 16 19 16 9 0 9 -3 -2 -10 -10 -7
-11 -13 -4 -17 12 -10 13 -53 1 -53 -5 0 -7 9 -4 20 3 11 1 18 -4 14 -5 -3 -9
-12 -9 -21 0 -24 -8 -12 -14 20 -6 36 -15 48 -29 41 -7 -3 -5 0 3 8 8 7 17 22
18 32 3 18 2 18 -15 6 -15 -12 -16 -12 -5 0 15 18 16 34 0 24 -7 -5 -8 -3 -3
6 6 10 11 9 22 -5 7 -11 13 -13 13 -7z m990 7 c12 2 20 1 16 -2 -14 -14 -45
-12 -57 5 -12 15 -12 16 2 5 8 -7 26 -11 39 -8z m551 -2 c13 -16 12 -17 -3 -4
-17 13 -22 21 -14 21 2 0 10 -8 17 -17z m-621 1 c0 -8 -19 -13 -24 -6 -3 5 1
9 9 9 8 0 15 -2 15 -3z m141 -7 c-6 -8 -8 -16 -5 -19 3 -3 1 -9 -4 -12 -6 -3
-9 0 -8 6 2 16 15 38 23 38 3 0 0 -6 -6 -13z m515 -12 c1 -8 -1 -17 -5 -19 -4
-3 -7 6 -7 19 0 25 8 25 12 0z m374 21 c0 -2 -8 -10 -17 -17 -16 -13 -17 -12
-4 4 13 16 21 21 21 13z m-1611 -13 c-3 -19 2 -33 12 -33 6 0 9 6 6 13 -3 8 1
14 9 14 18 0 18 -11 -2 -27 -12 -11 -18 -11 -31 2 -8 9 -12 21 -9 27 8 13 17
15 15 4z m81 -38 c0 -5 -5 -3 -10 5 -8 13 -10 12 -10 -4 0 -11 -3 -17 -6 -13
-3 3 -3 15 1 28 6 17 9 19 16 8 5 -8 9 -18 9 -24z m445 25 c-3 -5 -12 -10 -18
-10 -7 0 -6 4 3 10 19 12 23 12 15 0z m-606 -41 c1 -3 -14 -5 -31 -5 -31 1
-36 6 -25 24 2 4 2 2 1 -5 -2 -6 6 -11 17 -10 12 1 19 9 20 22 0 20 0 20 9 0
5 -11 9 -23 9 -26z m21 21 c0 -11 -2 -20 -4 -20 -2 0 -6 9 -9 20 -3 11 -1 20
4 20 5 0 9 -9 9 -20z m25 11 c3 -5 2 -12 -3 -15 -5 -3 -9 1 -9 9 0 17 3 19 12
6z m435 2 c-8 -3 -19 -11 -23 -17 -6 -8 -10 -7 -14 2 -2 6 -10 9 -15 6 -6 -4
-9 -3 -5 2 3 5 20 10 39 11 18 0 26 -1 18 -4z m-274 -40 c-3 -4 -6 -1 -6 5 0
7 -8 12 -17 12 -15 0 -16 2 -3 10 10 6 17 4 23 -6 5 -9 6 -18 3 -21z m67 -3
c5 0 3 8 -4 18 -12 15 -12 16 2 5 9 -7 19 -10 22 -6 4 3 7 1 7 -7 0 -10 3 -10
14 -1 10 8 16 9 21 1 3 -6 11 -8 16 -5 5 4 9 1 9 -5 0 -7 -7 -10 -15 -7 -18 7
-30 -9 -13 -17 7 -2 2 -3 -12 -2 -14 2 -32 -1 -40 -8 -8 -6 -6 0 5 13 18 22
18 24 2 18 -10 -4 -28 -2 -39 4 -18 10 -20 9 -15 -5 4 -10 3 -15 -2 -12 -5 3
-8 17 -8 30 0 24 0 24 20 5 11 -10 25 -19 30 -19z m287 31 c0 -6 -4 -12 -8
-15 -5 -3 -9 1 -9 9 0 8 4 15 9 15 4 0 8 -4 8 -9z m697 -6 c0 -8 -4 -12 -9 -9
-5 3 -6 10 -3 15 9 13 12 11 12 -6z m-817 -19 c0 -10 -30 0 -34 11 -4 11 -1
11 14 3 11 -6 20 -12 20 -14z m-512 -6 c7 -12 8 -20 2 -20 -5 0 -10 5 -10 10
0 6 -5 10 -11 10 -6 0 -9 -7 -5 -15 4 -13 2 -13 -14 -5 -15 8 -21 6 -30 -9
-14 -27 -13 -31 8 -24 21 8 17 3 -27 -27 -19 -13 -31 -19 -28 -13 4 7 3 15 -3
18 -8 5 -7 12 2 23 12 15 11 16 -5 3 -9 -8 -20 -11 -24 -7 -9 8 -1 15 23 19
10 2 30 9 44 17 14 8 29 13 33 12 4 -1 10 5 13 13 8 20 17 19 32 -5z m468 -14
c1 -15 -2 -29 -7 -31 -4 -3 -5 9 -2 26 3 21 1 29 -6 24 -6 -3 -11 -1 -11 5 0
25 25 2 26 -24z m80 10 c0 -14 -3 -23 -7 -20 -6 3 -6 22 0 42 3 10 7 -2 7 -22z
m809 -7 c-6 -16 -4 -20 6 -14 8 5 11 4 6 0 -4 -5 -18 -10 -30 -11 -12 -2 -16
0 -9 2 19 8 14 24 -5 18 -15 -5 -15 -4 -3 4 8 6 18 8 22 6 4 -3 8 0 8 5 0 6 3
11 6 11 3 0 2 -10 -1 -21z m230 12 c3 -5 2 -12 -3 -15 -5 -3 -9 1 -9 9 0 17 3
19 12 6z m-891 -9 c3 -5 -1 -9 -9 -9 -8 0 -12 4 -9 9 3 4 7 8 9 8 2 0 6 -4 9
-8z m756 2 c0 -8 -19 -13 -24 -6 -3 5 1 9 9 9 8 0 15 -2 15 -3z m1894 -10 c3
-8 2 -12 -4 -9 -6 3 -10 10 -10 16 0 14 7 11 14 -7z m-2841 -9 c-3 -9 -8 -14
-10 -11 -3 3 -2 9 2 15 9 16 15 13 8 -4z m-63 1 c0 -2 -8 -10 -17 -17 -16 -13
-17 -12 -4 4 13 16 21 21 21 13z m270 -31 c-5 -7 -9 -14 -7 -16 1 -2 0 -3 -2
-1 -11 7 -7 29 5 29 9 0 11 -4 4 -12z m600 5 c0 -5 -5 -10 -11 -10 -5 0 -7 5
-4 10 3 6 8 10 11 10 2 0 4 -4 4 -10z m-860 -14 c0 -3 -4 -8 -10 -11 -5 -3
-10 -1 -10 4 0 6 5 11 10 11 6 0 10 -2 10 -4z m140 0 c0 -2 -7 -7 -16 -10 -8
-3 -12 -2 -9 4 6 10 25 14 25 6z m31 -13 c13 -16 12 -17 -3 -4 -10 7 -18 15
-18 17 0 8 8 3 21 -13z m744 7 c4 -6 -1 -7 -11 -3 -13 5 -15 3 -9 -7 5 -9 4
-11 -4 -6 -6 4 -9 12 -6 17 8 12 22 12 30 -1z m-1495 -10 c0 -5 -2 -10 -4 -10
-3 0 -8 5 -11 10 -3 6 -1 10 4 10 6 0 11 -4 11 -10z m671 -23 c-10 -9 -11 -8
-5 6 3 10 9 15 12 12 3 -3 0 -11 -7 -18z m62 8 c4 -8 3 -16 -1 -19 -4 -3 -9 4
-9 15 -2 23 3 25 10 4z m912 6 c-9 -8 -36 -10 -30 -2 2 4 11 8 20 8 8 0 13 -3
10 -6z m2025 -11 c-13 -8 -13 -10 -1 -10 8 0 12 -3 8 -6 -3 -3 -11 -3 -17 1
-8 5 -8 11 1 21 6 8 14 12 18 9 3 -3 -1 -10 -9 -15z m-2998 -25 c3 0 9 -3 13
-7 4 -3 0 -5 -9 -4 -9 1 -22 8 -29 16 -10 10 -9 11 3 4 8 -5 18 -9 22 -9z
m-1507 -5 c-3 -5 -11 -10 -16 -10 -6 0 -7 5 -4 10 3 6 11 10 16 10 6 0 7 -4 4
-10z m1470 1 c3 -5 2 -12 -3 -15 -5 -3 -9 1 -9 9 0 17 3 19 12 6z m248 2 c3
-5 -6 -9 -20 -10 -19 -1 -22 1 -12 8 17 11 26 11 32 2z m2287 3 c0 -2 -8 -10
-17 -17 -16 -13 -17 -12 -4 4 13 16 21 21 21 13z m-1566 -24 c3 -5 -1 -9 -9
-9 -8 0 -12 4 -9 9 3 4 7 8 9 8 2 0 6 -4 9 -8z m-34 -18 c0 -8 -19 -13 -24 -6
-3 5 1 9 9 9 8 0 15 -2 15 -3z m1760 2 c0 -2 -8 -10 -17 -17 -16 -13 -17 -12
-4 4 13 16 21 21 21 13z m160 -22 c0 -8 -19 -13 -24 -6 -3 5 1 9 9 9 8 0 15
-2 15 -3z m-2859 -37 c-10 -9 -11 -8 -5 6 3 10 9 15 12 12 3 -3 0 -11 -7 -18z
m2899 17 c0 -8 -19 -13 -24 -6 -3 5 1 9 9 9 8 0 15 -2 15 -3z m-1990 -24 c0
-5 -2 -10 -4 -10 -3 0 -8 5 -11 10 -3 6 -1 10 4 10 6 0 11 -4 11 -10z m1833
-5 c4 -8 3 -16 -1 -19 -4 -3 -9 4 -9 15 -2 23 3 25 10 4z m-39 -34 c3 -5 -2
-15 -12 -22 -15 -12 -16 -12 -5 2 7 9 10 19 6 22 -3 4 -4 7 0 7 3 0 8 -4 11
-9z m206 -1 c0 -5 -2 -10 -4 -10 -3 0 -8 5 -11 10 -3 6 -1 10 4 10 6 0 11 -4
11 -10z m-2829 -33 c-10 -9 -11 -8 -5 6 3 10 9 15 12 12 3 -3 0 -11 -7 -18z
m-61 -3 c0 -8 -19 -13 -24 -6 -3 5 1 9 9 9 8 0 15 -2 15 -3z m2730 -4 c0 -5
-2 -10 -4 -10 -3 0 -8 5 -11 10 -3 6 -1 10 4 10 6 0 11 -4 11 -10z m234 -2
c-3 -4 -11 -5 -19 -1 -21 7 -19 12 4 10 11 0 18 -5 15 -9z m-2009 -38 c3 -6
-1 -7 -9 -4 -18 7 -21 14 -7 14 6 0 13 -4 16 -10z m2005 -16 c0 -8 -19 -13
-24 -6 -3 5 1 9 9 9 8 0 15 -2 15 -3z m-2080 -38 c0 -2 -8 -10 -17 -17 -16
-13 -17 -12 -4 4 13 16 21 21 21 13z m107 -11 c0 -8 -4 -12 -9 -9 -5 3 -6 10
-3 15 9 13 12 11 12 -6z m2043 6 c0 -6 -4 -12 -8 -15 -5 -3 -9 1 -9 9 0 8 4
15 9 15 4 0 8 -4 8 -9z m-10 -35 c0 -3 -4 -8 -10 -11 -5 -3 -10 -1 -10 4 0 6
5 11 10 11 6 0 10 -2 10 -4z m-2159 -39 c-10 -9 -11 -8 -5 6 3 10 9 15 12 12
3 -3 0 -11 -7 -18z m43 -53 c3 -8 2 -12 -4 -9 -6 3 -10 10 -10 16 0 14 7 11
14 -7z m186 -54 c0 -5 -5 -10 -11 -10 -5 0 -7 5 -4 10 3 6 8 10 11 10 2 0 4
-4 4 -10z m958 -52 c-2 -8 6 -13 18 -12 16 0 20 -4 16 -15 -5 -14 -4 -14 13
-1 15 12 17 12 10 1 -6 -11 -4 -13 9 -8 14 6 15 3 6 -13 -11 -21 -30 -27 -30
-11 0 6 -9 8 -20 6 -11 -2 -20 0 -20 6 0 11 -22 7 -32 -6 -5 -6 -8 -5 -8 3 0
7 -4 11 -10 7 -5 -3 -8 -11 -6 -18 1 -7 1 -9 -1 -4 -3 4 -9 7 -14 7 -6 0 -8
-4 -5 -9 4 -5 0 -11 -6 -14 -9 -3 -7 -10 7 -21 20 -17 20 -17 -1 -7 -12 6 -26
6 -35 0 -12 -7 -7 -13 11 -11 3 0 6 -8 6 -19 0 -18 -3 -17 -20 7 -22 30 -28
62 -13 71 6 3 7 1 3 -5 -4 -7 -3 -12 2 -12 17 0 22 13 9 28 -8 11 -8 14 0 9 6
-4 13 -4 16 0 2 5 2 2 1 -4 -4 -15 5 -16 26 -3 8 5 10 10 4 10 -7 0 -15 7 -18
16 -3 8 -2 12 3 9 5 -3 12 -1 16 4 3 5 14 8 25 6 11 -2 20 0 20 6 0 5 5 9 10
9 6 0 9 -6 8 -12z m-1138 -12 c-7 -7 -13 -7 -20 0 -6 6 -3 10 10 10 13 0 16
-4 10 -10z m236 -18 c3 -4 -1 -5 -10 -4 -8 1 -18 5 -22 8 -3 4 1 5 10 4 8 -1
18 -5 22 -8z m1539 -27 c3 -5 2 -12 -3 -15 -5 -3 -9 1 -9 9 0 17 3 19 12 6z
m-1675 -11 c0 -5 -5 -10 -11 -10 -5 0 -7 5 -4 10 3 6 8 10 11 10 2 0 4 -4 4
-10z m1142 0 c0 -5 1 -15 2 -22 1 -7 11 -23 23 -36 12 -13 21 -28 20 -32 -1
-5 7 -16 18 -24 l20 -16 -20 6 c-17 5 -16 2 5 -17 18 -16 20 -20 7 -16 -13 5
-17 3 -14 -5 2 -7 10 -12 16 -10 7 1 10 -2 6 -8 -3 -5 -1 -10 4 -10 6 0 11 5
11 11 0 5 5 7 11 3 8 -4 5 -11 -8 -18 -11 -6 -18 -16 -16 -23 6 -16 -14 -26
-23 -12 -5 8 -3 9 6 4 8 -5 11 -3 8 6 -3 8 -14 13 -24 11 -18 -2 -18 -2 0 13
18 14 15 20 -9 15 -5 -1 -7 2 -2 6 4 4 -1 17 -10 28 -10 12 -11 15 -3 9 8 -7
19 -13 25 -13 5 1 -1 10 -14 20 -13 11 -17 20 -10 20 8 0 5 6 -6 14 -11 8 -23
12 -27 10 -4 -3 -5 3 -1 12 4 12 3 15 -6 10 -7 -5 -10 -2 -9 6 2 7 -5 12 -15
12 -14 -2 -15 1 -6 12 9 11 8 14 -7 14 -16 0 -14 3 6 14 31 17 40 19 42 6z
m612 -6 c3 -8 2 -12 -4 -9 -6 3 -10 10 -10 16 0 14 7 11 14 -7z m-434 -34 c0
-5 -5 -10 -11 -10 -5 0 -7 5 -4 10 3 6 8 10 11 10 2 0 4 -4 4 -10z m35 0 c3
-5 1 -10 -4 -10 -6 0 -11 5 -11 10 0 6 2 10 4 10 3 0 8 -4 11 -10z m-446 -56
c-13 -15 -11 -16 11 -11 14 4 19 4 12 1 -10 -5 -10 -9 0 -22 10 -12 10 -14 1
-8 -8 4 -13 1 -13 -8 0 -19 -16 -21 -26 -4 -4 6 -3 8 3 5 6 -4 14 0 17 9 5 12
1 14 -17 10 -12 -3 -16 -3 -8 0 11 5 11 8 0 15 -12 7 -12 9 0 9 11 0 11 3 1
15 -10 12 -10 15 0 15 10 0 10 4 -1 18 -7 9 -2 7 11 -5 20 -19 22 -24 9 -39z
m776 37 c-9 -8 -36 -10 -30 -2 2 4 11 8 20 8 8 0 13 -3 10 -6z m-770 -130 c3
-7 3 -16 0 -19 -3 -3 -5 0 -5 6 0 6 -7 9 -16 5 -11 -4 -15 -1 -12 13 2 12 -2
18 -10 16 -8 -1 -11 2 -7 8 7 12 42 -8 50 -29z m510 9 c3 -6 -1 -7 -9 -4 -18
7 -21 14 -7 14 6 0 13 -4 16 -10z m-545 -42 c0 -19 -16 -5 -17 14 -2 18 0 20
7 8 5 -8 10 -18 10 -22z m-3039 -1 c-10 -9 -11 -8 -5 6 3 10 9 15 12 12 3 -3
0 -11 -7 -18z m3589 9 c0 -2 -8 -10 -17 -17 -16 -13 -17 -12 -4 4 13 16 21 21
21 13z m-3545 -25 c3 -5 2 -12 -3 -15 -5 -3 -9 1 -9 9 0 17 3 19 12 6z m3359
-6 c-16 -13 -16 -14 -1 -9 19 7 24 -11 5 -22 -7 -5 -8 -3 -3 6 5 8 4 11 -3 7
-5 -4 -18 -4 -27 -1 -14 6 -13 8 7 19 32 18 46 18 22 0z m-347 -28 c-1 -18 -6
-35 -11 -39 -11 -7 -18 -91 -8 -84 5 3 14 0 22 -5 11 -7 9 -8 -8 -6 -13 2 -29
15 -37 30 -8 16 -9 26 -3 24 6 -1 13 4 15 11 3 8 -2 10 -14 6 -17 -5 -17 -5 0
6 17 11 17 13 1 24 -15 12 -15 13 -1 19 9 3 14 14 12 24 -2 13 3 19 15 20 15
1 18 -5 17 -30z m379 8 c-3 -8 0 -15 7 -16 9 0 9 -2 -1 -6 -6 -2 -10 -8 -8
-12 3 -4 1 -13 -5 -21 -6 -10 -9 -11 -9 -2 0 20 -28 14 -40 -9 -9 -16 -14 -18
-26 -8 -17 14 -19 -2 -1 -20 10 -11 9 -13 -1 -7 -7 4 -15 1 -18 -8 -5 -13 -9
-12 -24 7 -17 20 -19 20 -25 5 -4 -10 -11 -15 -16 -12 -5 3 -9 1 -9 -5 0 -5 5
-12 10 -14 6 -3 5 -4 -2 -3 -7 2 -13 9 -13 17 0 8 -4 18 -10 22 -5 5 1 5 15 1
22 -6 23 -5 12 9 -10 12 -10 17 -1 23 7 4 9 3 5 -4 -3 -6 -2 -13 4 -17 6 -3
13 1 16 10 6 14 8 14 21 -2 13 -17 14 -16 9 7 -3 14 -3 19 0 11 5 -11 10 -8
21 10 13 23 14 23 8 2 -5 -18 -3 -22 9 -17 8 3 13 14 11 24 -3 14 1 18 16 15
12 -2 24 4 32 16 14 23 21 25 13 4z m-3344 -19 c7 4 8 2 4 -5 -4 -6 0 -14 8
-17 9 -3 16 -11 16 -16 0 -5 -13 1 -29 14 -15 13 -26 27 -23 33 3 5 7 4 10 -3
2 -7 9 -9 14 -6z m3530 -21 c0 -5 -5 -10 -11 -11 -8 -2 -7 -1 0 3 8 4 7 8 -2
15 -11 8 -11 9 -1 6 8 -2 14 -8 14 -13z m-387 -93 c-6 -16 -7 -16 -16 0 -5 9
-6 24 -3 33 7 16 8 16 16 0 5 -9 7 -24 3 -33z m-230 18 c3 -6 -1 -7 -9 -4 -18
7 -21 14 -7 14 6 0 13 -4 16 -10z m158 -18 c-6 -15 -5 -15 11 -3 13 11 20 11
28 3 9 -9 9 -12 0 -13 -19 -2 -51 -6 -59 -8 -5 -1 -1 -6 7 -11 10 -7 3 -8 -24
-5 -48 6 -51 9 -36 32 10 16 11 16 6 1 -7 -23 10 -23 23 -1 5 10 13 14 17 10
5 -5 2 -12 -6 -17 -10 -6 -11 -10 -3 -10 15 0 35 35 25 45 -4 5 -2 5 5 1 7 -4
9 -14 6 -24z m-165 -15 c2 -10 -1 -17 -7 -17 -6 0 -7 7 -4 17 4 10 2 14 -5 9
-6 -3 -13 -2 -16 3 -4 5 2 8 11 7 10 -2 19 -10 21 -19z m17 -27 c-9 -10 -14
-23 -10 -29 3 -6 0 -9 -7 -6 -7 3 -20 15 -27 28 -13 20 -13 21 2 8 14 -11 20
-11 32 -1 8 7 12 17 8 23 -4 6 -1 7 6 3 9 -6 8 -12 -4 -26z m55 5 c9 -10 9
-15 1 -15 -6 0 -11 5 -11 11 0 5 -4 7 -10 4 -5 -3 -10 -1 -10 4 0 16 16 13 30
-4z m-805 -15 c4 -11 11 -18 16 -15 5 4 12 -1 15 -10 6 -13 9 -14 16 -3 6 8 7
5 2 -12 -6 -23 -6 -24 12 -10 19 14 19 14 1 -7 -18 -21 -47 -21 -47 -1 0 5 5
6 10 3 6 -3 10 -2 10 2 0 14 -40 34 -53 26 -7 -4 -7 0 2 10 9 11 10 17 2 17
-6 0 -11 5 -11 10 0 18 18 10 25 -10z m697 -18 c-7 -2 -9 -9 -6 -14 4 -7 2 -8
-4 -4 -6 4 -9 13 -6 21 4 8 11 12 17 8 8 -5 7 -8 -1 -11z m78 8 c0 -5 -4 -10
-10 -10 -5 0 -10 5 -10 10 0 6 5 10 10 10 6 0 10 -4 10 -10z m-2299 -193 c-10
-9 -11 -8 -5 6 3 10 9 15 12 12 3 -3 0 -11 -7 -18z m1959 2 c0 -6 -4 -7 -10
-4 -5 3 -10 11 -10 16 0 6 5 7 10 4 6 -3 10 -11 10 -16z m-1926 -15 c3 -8 2
-12 -4 -9 -6 3 -10 10 -10 16 0 14 7 11 14 -7z m132 -35 c3 -6 1 -16 -6 -22
-10 -9 -11 -9 -5 2 4 8 2 17 -6 22 -9 6 -10 9 -2 9 6 0 15 -5 19 -11z m1539 1
c-3 -5 -1 -10 6 -10 7 0 10 -3 6 -6 -9 -9 -28 6 -22 17 4 5 8 9 11 9 3 0 2 -4
-1 -10z m40 1 c3 -5 1 -12 -5 -16 -5 -3 -10 1 -10 9 0 18 6 21 15 7z m-1541
-23 c-3 -4 -9 -8 -15 -8 -5 0 -9 4 -9 8 0 5 7 9 15 9 8 0 12 -4 9 -9z m854
-70 c-2 -7 3 -12 10 -10 6 1 12 -2 12 -7 0 -12 -79 -8 -84 5 -2 6 2 11 10 11
8 0 14 -5 14 -11 0 -6 8 -3 17 7 21 20 24 21 21 5z m-260 -27 c2 -1 0 -6 -3
-11 -5 -8 -11 -8 -19 -1 -7 6 -17 7 -21 3 -5 -4 -5 -2 -2 5 6 9 18 10 45 4z
m79 -6 c0 -8 -3 -13 -5 -10 -3 3 -11 0 -19 -6 -10 -9 -13 -8 -13 1 0 7 -7 10
-16 6 -9 -3 -12 -2 -9 5 4 5 15 7 26 4 11 -4 19 -2 19 4 0 6 4 11 8 11 5 0 9
-7 9 -15z m833 -100 c11 -13 10 -14 -4 -9 -9 3 -16 10 -16 15 0 13 6 11 20 -6z
m-50 -109 c0 -2 -7 -9 -15 -16 -13 -11 -14 -10 -9 4 5 14 24 23 24 12z m-100
-46 c0 -5 -2 -10 -4 -10 -3 0 -8 5 -11 10 -3 6 -1 10 4 10 6 0 11 -4 11 -10z
m-55 -9 c3 -5 2 -12 -3 -15 -5 -3 -9 1 -9 9 0 17 3 19 12 6z m-25 -11 c0 -5
-2 -10 -4 -10 -3 0 -8 5 -11 10 -3 6 -1 10 4 10 6 0 11 -4 11 -10z m-896 -12
c-5 -8 -2 -9 10 -5 9 4 15 3 12 -2 -3 -5 -15 -11 -26 -14 -17 -4 -18 -2 -9 14
5 10 12 19 15 19 3 0 2 -5 -2 -12z m636 -123 c0 -1 -10 -10 -22 -21 -14 -12
-18 -13 -10 -3 6 9 10 18 7 21 -3 2 2 5 10 5 8 0 15 -1 15 -2z"/>
<path d="M839 4438 c-10 -6 -6 -7 11 -3 20 6 23 5 13 -6 -17 -18 -16 -26 5
-34 14 -5 15 -4 4 7 -10 10 -9 15 8 28 20 15 20 15 -4 16 -13 1 -30 -3 -37 -8z"/>
<path d="M823 4405 c0 -8 4 -12 9 -9 4 3 8 9 8 15 0 5 -4 9 -8 9 -5 0 -9 -7
-9 -15z"/>
<path d="M2370 2301 c-8 -6 -17 -8 -21 -5 -4 2 -6 -4 -4 -13 1 -10 -3 -25 -9
-33 -6 -8 0 -6 13 5 20 17 47 55 39 55 -2 0 -10 -4 -18 -9z"/>
<path d="M2566 2223 c-6 -14 -5 -15 5 -6 7 7 10 15 7 18 -3 3 -9 -2 -12 -12z"/>
<path d="M1367 2243 c-4 -3 -19 -7 -34 -9 -38 -3 -37 -2 -24 -17 6 -8 8 -17 4
-21 -4 -3 -8 -14 -9 -22 -2 -13 0 -13 17 1 10 10 16 21 14 26 -7 11 36 40 48
32 6 -3 7 -1 3 5 -8 14 -10 14 -19 5z m-27 -19 c0 -8 -19 -13 -24 -6 -3 5 1 9
9 9 8 0 15 -2 15 -3z"/>
<path d="M1879 2053 c-13 -16 -12 -17 4 -4 9 7 17 15 17 17 0 8 -8 3 -21 -13z"/>
<path d="M1400 2011 c-13 -26 -13 -31 3 -25 7 2 13 13 13 24 0 25 -3 25 -16 1z"/>
<path d="M4004 1398 c-6 -10 -7 -10 36 -12 20 -1 42 -6 50 -10 8 -4 4 1 -9 11
-26 19 -68 25 -77 11z"/>
<path d="M3955 1330 c-16 -17 -16 -20 -3 -15 9 4 19 13 22 21 7 19 2 18 -19
-6z"/>
<path d="M4146 1341 c-4 -5 6 -24 21 -43 15 -18 28 -35 30 -37 2 -2 5 -2 8 1
3 3 -5 16 -19 29 -13 12 -22 28 -19 35 5 15 -13 28 -21 15z"/>
<path d="M3907 1094 c-3 -3 -3 -12 0 -20 3 -8 0 -14 -7 -14 -6 0 -8 -5 -5 -11
9 -14 17 -5 20 26 3 26 2 29 -8 19z"/>
<path d="M4285 1061 c-3 -5 -2 -12 3 -15 5 -3 9 1 9 9 0 17 -3 19 -12 6z"/>
<path d="M4170 1007 c0 -2 6 -10 14 -16 11 -9 16 -9 22 1 4 7 4 10 -1 6 -4 -4
-14 -3 -22 3 -7 6 -13 9 -13 6z"/>
<path d="M1886 5051 c6 -11 3 -13 -12 -7 -18 7 -18 6 1 -12 11 -11 22 -18 24
-16 2 2 11 -1 21 -6 12 -6 17 -5 17 5 0 8 -4 12 -9 9 -5 -3 -18 5 -29 18 -11
13 -17 17 -13 9z"/>
<path d="M1195 5040 c-3 -5 -1 -10 6 -10 7 0 4 -7 -7 -16 -18 -15 -18 -15 3
-4 14 6 20 16 17 25 -7 18 -11 19 -19 5z"/>
<path d="M1157 5003 c-10 -9 -9 -33 1 -33 4 0 8 9 8 20 0 23 0 22 -9 13z"/>
<path d="M1105 4950 c6 -9 1 -10 -16 -5 -13 3 -19 3 -14 -2 6 -5 13 -12 16
-16 3 -4 12 -1 18 7 9 11 9 16 0 22 -8 5 -9 3 -4 -6z"/>
<path d="M2056 4903 c-6 -14 -5 -15 5 -6 7 7 10 15 7 18 -3 3 -9 -2 -12 -12z"/>
<path d="M915 4750 c3 -5 8 -10 11 -10 2 0 4 5 4 10 0 6 -5 10 -11 10 -5 0 -7
-4 -4 -10z"/>
<path d="M2190 4633 c0 -6 5 -13 12 -15 6 -2 12 -13 12 -24 2 -19 7 -24 26
-24 8 0 8 4 0 13 -5 6 -19 23 -30 37 -10 14 -19 20 -20 13z"/>
<path d="M670 4601 c0 -7 -5 -9 -12 -5 -7 5 -8 3 -3 -5 5 -9 10 -10 18 -2 6 6
8 14 4 18 -4 3 -7 1 -7 -6z"/>
<path d="M520 4570 c-9 -6 -10 -10 -3 -10 6 0 15 5 18 10 8 12 4 12 -15 0z"/>
<path d="M420 4541 c0 -6 4 -13 10 -16 6 -3 7 1 4 9 -7 18 -14 21 -14 7z"/>
<path d="M210 4486 c4 -4 16 -4 26 2 16 9 14 10 -8 9 -15 -1 -23 -6 -18 -11z"/>
<path d="M730 4410 c0 -5 5 -10 10 -10 6 0 10 5 10 10 0 6 -4 10 -10 10 -5 0
-10 -4 -10 -10z"/>
<path d="M620 4370 c-8 -5 -10 -10 -5 -10 6 0 17 5 25 10 8 5 11 10 5 10 -5 0
-17 -5 -25 -10z"/>
<path d="M2220 4330 c0 -5 5 -10 11 -10 5 0 7 5 4 10 -3 6 -8 10 -11 10 -2 0
-4 -4 -4 -10z"/>
<path d="M350 4287 c0 -2 6 -10 14 -16 11 -9 16 -9 22 1 4 7 4 10 -1 6 -4 -4
-14 -3 -22 3 -7 6 -13 9 -13 6z"/>
<path d="M807 4193 c3 -7 6 -13 8 -13 2 0 5 6 8 13 3 8 -1 14 -8 14 -7 0 -11
-6 -8 -14z"/>
<path d="M617 4169 c-4 -16 -3 -18 9 -8 7 6 11 15 8 20 -8 13 -11 11 -17 -12z"/>
<path d="M1060 4173 c0 -6 5 -15 10 -18 6 -4 8 -11 5 -16 -3 -5 1 -6 10 -2 12
4 13 8 5 13 -7 4 -16 14 -21 21 -6 9 -9 10 -9 2z"/>
<path d="M1120 4140 c-12 -8 -13 -11 -2 -22 8 -7 13 -8 12 -3 -5 21 1 29 10
15 5 -8 12 -12 15 -9 11 12 -20 28 -35 19z"/>
<path d="M1161 3943 c7 -12 15 -20 18 -17 3 2 -3 12 -13 22 -17 16 -18 16 -5
-5z"/>
<path d="M1070 3589 c0 -5 5 -7 10 -4 6 3 10 8 10 11 0 2 -4 4 -10 4 -5 0 -10
-5 -10 -11z"/>
<path d="M1921 3586 c-8 -10 -9 -16 -1 -21 6 -4 9 -1 8 7 -2 7 3 12 10 11 6
-2 12 2 12 7 0 14 -16 12 -29 -4z"/>
<path d="M1864 3459 c-3 -6 -1 -16 5 -22 9 -9 10 -7 5 8 -7 18 -6 18 9 6 9 -7
17 -9 17 -3 0 14 -28 23 -36 11z"/>
<path d="M967 3305 c-4 -8 -1 -17 6 -21 7 -4 9 -4 5 1 -4 4 -3 14 3 22 7 8 8
13 1 13 -5 0 -12 -7 -15 -15z"/>
<path d="M955 3260 c-3 -5 -2 -10 4 -10 5 0 13 5 16 10 3 6 2 10 -4 10 -5 0
-13 -4 -16 -10z"/>
<path d="M3340 3173 c11 -24 30 -31 30 -11 0 6 -3 8 -7 5 -3 -4 -12 1 -20 11
-13 15 -13 15 -3 -5z"/>
<path d="M3270 3168 c0 -6 3 -8 6 -5 4 3 15 2 25 -3 12 -7 20 -6 25 2 4 7 3 8
-4 4 -7 -4 -12 -3 -12 1 0 5 -9 9 -20 10 -11 1 -20 -3 -20 -9z"/>
<path d="M3405 3171 c-3 -5 -2 -12 3 -15 5 -3 9 1 9 9 0 17 -3 19 -12 6z"/>
<path d="M2945 3150 c-3 -6 1 -7 9 -4 18 7 21 14 7 14 -6 0 -13 -4 -16 -10z"/>
<path d="M3435 3150 c3 -5 8 -10 11 -10 2 0 4 5 4 10 0 6 -5 10 -11 10 -5 0
-7 -4 -4 -10z"/>
<path d="M878 3099 c-10 -10 -13 -19 -8 -19 6 0 13 0 18 0 4 0 7 3 7 8 0 4 4
13 8 20 12 19 -6 13 -25 -9z"/>
<path d="M1748 3093 c7 -3 16 -2 19 1 4 3 -2 6 -13 5 -11 0 -14 -3 -6 -6z"/>
<path d="M3810 3055 c0 -8 4 -15 8 -15 5 0 9 7 9 15 0 8 -4 15 -9 15 -4 0 -8
-7 -8 -15z"/>
<path d="M860 3051 c0 -6 4 -12 8 -15 5 -3 9 1 9 9 0 8 -4 15 -9 15 -4 0 -8
-4 -8 -9z"/>
<path d="M3875 3030 c3 -5 8 -10 11 -10 2 0 4 5 4 10 0 6 -5 10 -11 10 -5 0
-7 -4 -4 -10z"/>
<path d="M2510 2991 c0 -6 4 -13 10 -16 6 -3 7 1 4 9 -7 18 -14 21 -14 7z"/>
<path d="M4070 2976 c0 -2 7 -7 16 -10 8 -3 12 -2 9 4 -6 10 -25 14 -25 6z"/>
<path d="M4117 2939 c4 -13 8 -18 11 -10 2 7 -1 18 -6 23 -8 8 -9 4 -5 -13z"/>
<path d="M734 2902 c3 -6 -2 -15 -11 -21 -10 -6 -13 -11 -7 -11 20 0 37 27 23
36 -7 4 -9 3 -5 -4z"/>
<path d="M4190 2900 c-9 -6 -10 -10 -3 -10 6 0 15 5 18 10 8 12 4 12 -15 0z"/>
<path d="M1704 2810 c0 -13 4 -16 10 -10 7 7 7 13 0 20 -6 6 -10 3 -10 -10z"/>
<path d="M4375 2809 c-4 -6 -5 -12 -2 -15 2 -3 7 2 10 11 7 17 1 20 -8 4z"/>
<path d="M1685 2770 c-3 -5 1 -10 9 -10 9 0 16 5 16 10 0 6 -4 10 -9 10 -6 0
-13 -4 -16 -10z"/>
<path d="M2197 2757 c4 -6 -3 -8 -16 -4 -17 4 -20 3 -12 -7 6 -7 7 -17 3 -22
-4 -5 5 2 21 15 32 29 31 28 12 28 -8 0 -11 -5 -8 -10z"/>
<path d="M4475 2721 c-3 -5 -2 -12 3 -15 5 -3 9 1 9 9 0 17 -3 19 -12 6z"/>
<path d="M643 2665 c0 -8 4 -12 9 -9 5 3 6 10 3 15 -9 13 -12 11 -12 -6z"/>
<path d="M4550 2655 c28 -30 30 -30 23 -5 -3 11 -9 17 -14 14 -5 -3 -9 0 -9 5
0 6 -5 11 -12 11 -6 0 -1 -11 12 -25z"/>
<path d="M2017 2636 c-3 -8 -2 -18 3 -21 13 -8 20 9 11 24 -6 10 -10 9 -14 -3z"/>
<path d="M4636 2601 c-3 -5 1 -14 9 -21 8 -7 13 -15 11 -19 -3 -4 5 -7 17 -8
12 0 16 1 9 4 -6 3 -9 10 -5 16 3 7 3 9 -2 5 -10 -10 -37 11 -29 23 3 5 3 9 0
9 -3 0 -7 -4 -10 -9z"/>
<path d="M1873 2573 c9 -8 57 -13 57 -6 0 5 -14 9 -31 9 -16 1 -28 0 -26 -3z"/>
<path d="M595 2530 c-3 -5 -1 -10 4 -10 6 0 11 5 11 10 0 6 -2 10 -4 10 -3 0
-8 -4 -11 -10z"/>
<path d="M4753 2452 c9 -10 15 -21 13 -23 -2 -2 8 -5 22 -5 26 -2 26 -1 5 9
-13 5 -23 13 -23 17 0 5 -8 11 -17 14 -16 6 -16 6 0 -12z"/>
<path d="M4790 2406 c0 -2 7 -7 16 -10 8 -3 12 -2 9 4 -6 10 -25 14 -25 6z"/>
<path d="M535 2350 c-3 -5 -2 -10 4 -10 5 0 13 5 16 10 3 6 2 10 -4 10 -5 0
-13 -4 -16 -10z"/>
<path d="M513 2275 c0 -7 6 -12 13 -12 7 0 15 5 17 12 3 6 -3 11 -12 11 -10 0
-18 -5 -18 -11z"/>
<path d="M4996 2091 c-3 -4 1 -16 8 -26 10 -14 15 -15 21 -5 5 9 4 11 -3 6
-11 -6 -16 6 -13 27 1 10 -7 9 -13 -2z"/>
<path d="M5027 2009 c7 -7 15 -10 18 -7 3 3 -2 9 -12 12 -14 6 -15 5 -6 -5z"/>
<path d="M510 1836 c0 -2 7 -7 16 -10 8 -3 12 -2 9 4 -6 10 -25 14 -25 6z"/>
<path d="M540 1640 c-8 -5 -10 -10 -5 -10 6 0 17 5 25 10 8 5 11 10 5 10 -5 0
-17 -5 -25 -10z"/>
<path d="M564 1569 c-4 -7 -3 -9 4 -5 6 3 15 -2 21 -11 6 -10 11 -13 11 -7 0
20 -27 37 -36 23z"/>
<path d="M4929 1408 c-5 -18 -6 -38 -1 -34 7 8 12 36 6 36 -2 0 -4 -1 -5 -2z"/>
<path d="M4880 1330 c-9 -6 -10 -10 -3 -10 6 0 15 5 18 10 8 12 4 12 -15 0z"/>
<path d="M759 1183 c-12 -16 -12 -17 2 -6 9 7 20 9 24 5 5 -4 5 -1 1 6 -9 16
-11 15 -27 -5z"/>
<path d="M1010 994 c0 -8 5 -12 10 -9 6 4 8 11 5 16 -9 14 -15 11 -15 -7z"/>
<path d="M4540 925 c-7 -8 -10 -15 -6 -15 3 0 -4 -11 -16 -25 -11 -13 -25 -22
-30 -19 -5 3 2 -15 14 -41 12 -25 24 -41 26 -36 2 6 12 11 22 11 10 0 20 5 22
12 3 7 7 5 11 -6 4 -9 3 -15 -1 -12 -5 3 -9 -1 -9 -9 0 -11 4 -12 13 -4 7 6
18 8 24 4 6 -4 10 -3 9 2 -4 22 2 34 14 27 9 -6 9 -5 0 8 -7 8 -11 17 -8 20 3
3 -2 11 -12 19 -11 9 -14 10 -9 2 4 -7 2 -13 -3 -13 -6 0 -11 8 -11 17 0 14
-5 12 -27 -8 -20 -17 -23 -18 -10 -3 20 24 22 35 5 32 -15 -4 -18 22 -5 40 13
17 2 15 -13 -3z m-26 -81 c3 -8 2 -12 -4 -9 -6 3 -10 10 -10 16 0 14 7 11 14
-7z m103 -9 c0 -8 -4 -12 -9 -9 -5 3 -6 10 -3 15 9 13 12 11 12 -6z m-77 -19
c0 -3 -4 -8 -10 -11 -5 -3 -10 -1 -10 4 0 6 5 11 10 11 6 0 10 -2 10 -4z"/>
<path d="M4246 915 c4 -8 11 -15 16 -15 6 0 5 6 -2 15 -7 8 -14 15 -16 15 -2
0 -1 -7 2 -15z"/>
<path d="M4556 903 c-6 -14 -5 -15 5 -6 7 7 10 15 7 18 -3 3 -9 -2 -12 -12z"/>
<path d="M4475 820 c21 -24 26 -25 19 -6 -3 8 -13 17 -22 21 -13 5 -13 2 3
-15z"/>
<path d="M1340 790 c0 -5 5 -10 11 -10 5 0 7 5 4 10 -3 6 -8 10 -11 10 -2 0
-4 -4 -4 -10z"/>
<path d="M4630 791 c0 -6 4 -12 8 -15 5 -3 9 1 9 9 0 8 -4 15 -9 15 -4 0 -8
-4 -8 -9z"/>
<path d="M1396 753 c-6 -14 -5 -15 5 -6 7 7 10 15 7 18 -3 3 -9 -2 -12 -12z"/>
<path d="M1420 749 c0 -6 8 -9 17 -7 10 2 18 -2 18 -9 0 -20 11 -23 12 -3 1
11 -1 20 -5 21 -4 0 -15 2 -24 4 -10 2 -18 -1 -18 -6z"/>
<path d="M3706 727 c3 -10 9 -15 12 -12 3 3 0 11 -7 18 -10 9 -11 8 -5 -6z"/>
<path d="M3480 649 c0 -5 5 -7 10 -4 6 3 10 8 10 11 0 2 -4 4 -10 4 -5 0 -10
-5 -10 -11z"/>
<path d="M1896 596 c4 -9 14 -15 23 -14 9 2 22 -3 29 -12 11 -13 11 -11 2 8
-6 12 -15 20 -21 16 -5 -3 -17 0 -25 7 -12 10 -13 9 -8 -5z"/>
<path d="M2136 533 c-6 -14 -5 -15 5 -6 7 7 10 15 7 18 -3 3 -9 -2 -12 -12z"/>
<path d="M2893 537 c0 -8 6 -14 14 -14 9 0 10 4 2 14 -6 7 -12 13 -14 13 -1 0
-2 -6 -2 -13z"/>
<path d="M2957 539 c7 -7 15 -10 18 -7 3 3 -2 9 -12 12 -14 6 -15 5 -6 -5z"/>
<path d="M2050 529 c0 -5 5 -7 10 -4 6 3 10 8 10 11 0 2 -4 4 -10 4 -5 0 -10
-5 -10 -11z"/>
<path d="M2760 530 c-9 -6 -10 -10 -3 -10 6 0 15 5 18 10 8 12 4 12 -15 0z"/>
<path d="M2790 529 c0 -5 5 -7 10 -4 6 3 10 8 10 11 0 2 -4 4 -10 4 -5 0 -10
-5 -10 -11z"/>
<path d="M3390 460 c-6 -11 -8 -20 -6 -20 3 0 10 9 16 20 6 11 8 20 6 20 -3 0
-10 -9 -16 -20z"/>
<path d="M3070 411 c0 -6 4 -13 10 -16 6 -3 7 1 4 9 -7 18 -14 21 -14 7z"/>
<path d="M3370 369 c0 -5 5 -7 10 -4 6 3 10 8 10 11 0 2 -4 4 -10 4 -5 0 -10
-5 -10 -11z"/>
<path d="M2825 320 c-3 -6 1 -7 9 -4 18 7 21 14 7 14 -6 0 -13 -4 -16 -10z"/>
<path d="M2406 312 c-3 -5 1 -9 9 -9 8 0 15 4 15 9 0 4 -4 8 -9 8 -6 0 -12 -4
-15 -8z"/>
<path d="M2522 304 c10 -10 20 -16 22 -13 3 3 -5 11 -17 18 -21 13 -21 12 -5
-5z"/>
<path d="M2636 298 c3 -5 10 -6 15 -3 13 9 11 12 -6 12 -8 0 -12 -4 -9 -9z"/>
<path d="M2100 141 c5 -11 15 -23 21 -27 6 -3 3 5 -6 20 -20 30 -30 35 -15 7z"/>
<path d="M2676 71 c-4 -6 -12 -9 -17 -6 -5 3 -6 -1 -2 -10 5 -13 7 -14 14 -3
7 11 11 10 19 -2 5 -8 10 -10 10 -5 0 20 -17 38 -24 26z"/>
<path d="M2735 70 c-4 -6 -12 -7 -18 -4 -7 4 -9 3 -4 -1 13 -15 46 -13 40 2
-6 16 -10 16 -18 3z"/>
<path d="M2625 59 c-4 -6 -5 -12 -2 -15 2 -3 7 2 10 11 7 17 1 20 -8 4z"/>
</g>
</svg>
